<svg width="110" height="92" viewBox="0 0 110 92" fill="none" xmlns="http://www.w3.org/2000/svg">
<path d="M23.6294 56.2644C23.5473 45.1679 32.515 36.126 43.6118 36.1166L106.887 36.0625L23.8867 91.0632L23.6294 56.2644Z" fill="#FFB600"/>
<path d="M59.2428 53.5189C58.1823 48.6161 56.5862 45.9993 54.2186 45.2846C53.7209 45.1353 53.2046 45.0607 52.686 45.0632C52.0004 45.0632 51.4034 45.2339 50.7719 45.4149C50.0108 45.6333 49.1463 45.8812 47.8857 45.8812C46.6251 45.8812 45.7601 45.6338 44.9975 45.4154C44.3655 45.2339 43.769 45.0632 43.0854 45.0632C42.5491 45.0613 42.0151 45.1356 41.4988 45.284C39.1437 45.9958 37.5486 48.6115 36.4725 53.5158C35.3155 58.7933 35.885 62.1254 38.0696 62.8985C38.3691 63.0064 38.6842 63.0621 39.0017 63.0631C40.4983 63.0631 41.6983 61.7885 42.5184 60.7449C43.4449 59.5638 44.5295 58.9646 47.8857 58.9646C50.8834 58.9646 52.1239 59.3803 53.1955 60.7449C53.869 61.6029 54.5056 62.2031 55.1406 62.581C55.9852 63.0831 56.8292 63.1945 57.6488 62.9067C58.9398 62.4562 59.6799 61.2654 59.8489 59.3665C59.9774 57.9103 59.7794 55.9976 59.2428 53.5189ZM45.4856 53.2438H43.8855V54.8799C43.8855 55.0969 43.8012 55.305 43.6511 55.4584C43.5011 55.6118 43.2976 55.698 43.0854 55.698C42.8732 55.698 42.6697 55.6118 42.5197 55.4584C42.3697 55.305 42.2854 55.0969 42.2854 54.8799V53.2438H40.6853C40.4731 53.2438 40.2696 53.1576 40.1196 53.0042C39.9695 52.8508 39.8852 52.6427 39.8852 52.4257C39.8852 52.2088 39.9695 52.0007 40.1196 51.8473C40.2696 51.6939 40.4731 51.6077 40.6853 51.6077H42.2854V49.9715C42.2854 49.7546 42.3697 49.5465 42.5197 49.3931C42.6697 49.2397 42.8732 49.1535 43.0854 49.1535C43.2976 49.1535 43.5011 49.2397 43.6511 49.3931C43.8012 49.5465 43.8855 49.7546 43.8855 49.9715V51.6077H45.4856C45.6977 51.6077 45.9012 51.6939 46.0513 51.8473C46.2013 52.0007 46.2856 52.2088 46.2856 52.4257C46.2856 52.6427 46.2013 52.8508 46.0513 53.0042C45.9012 53.1576 45.6977 53.2438 45.4856 53.2438ZM49.6858 53.4483C49.488 53.4483 49.2946 53.3883 49.1302 53.276C48.9657 53.1636 48.8376 53.0039 48.7619 52.8171C48.6862 52.6302 48.6664 52.4246 48.705 52.2262C48.7435 52.0279 48.8388 51.8457 48.9786 51.7027C49.1185 51.5597 49.2967 51.4623 49.4907 51.4228C49.6847 51.3833 49.8858 51.4036 50.0685 51.481C50.2512 51.5584 50.4074 51.6895 50.5173 51.8576C50.6272 52.0258 50.6859 52.2235 50.6859 52.4257C50.6859 52.6969 50.5805 52.957 50.3929 53.1488C50.2054 53.3406 49.951 53.4483 49.6858 53.4483ZM51.8859 55.698C51.688 55.698 51.4946 55.6379 51.3301 55.5255C51.1655 55.413 51.0374 55.2531 50.9618 55.0661C50.8861 54.8791 50.8665 54.6734 50.9053 54.475C50.9441 54.2765 51.0395 54.0943 51.1797 53.9514C51.3198 53.8085 51.4982 53.7113 51.6924 53.6722C51.8865 53.633 52.0877 53.6536 52.2704 53.7314C52.4531 53.8092 52.6091 53.9407 52.7187 54.1092C52.8282 54.2777 52.8865 54.4756 52.886 54.678C52.8853 54.9487 52.7797 55.2082 52.5922 55.3994C52.4047 55.5906 52.1507 55.698 51.8859 55.698ZM51.8859 51.1986C51.6881 51.1986 51.4948 51.1387 51.3303 51.0263C51.1659 50.9139 51.0377 50.7542 50.962 50.5674C50.8863 50.3805 50.8665 50.1749 50.9051 49.9766C50.9437 49.7782 51.0389 49.596 51.1788 49.453C51.3186 49.31 51.4968 49.2126 51.6908 49.1731C51.8848 49.1337 52.0859 49.1539 52.2686 49.2313C52.4514 49.3087 52.6075 49.4398 52.7174 49.6079C52.8273 49.7761 52.886 49.9738 52.886 50.1761C52.886 50.4473 52.7806 50.7074 52.5931 50.8991C52.4055 51.0909 52.1512 51.1986 51.8859 51.1986ZM54.086 53.4483C53.8883 53.4483 53.6949 53.3883 53.5304 53.276C53.366 53.1636 53.2378 53.0039 53.1621 52.8171C53.0864 52.6302 53.0666 52.4246 53.1052 52.2262C53.1438 52.0279 53.239 51.8457 53.3789 51.7027C53.5188 51.5597 53.697 51.4623 53.8909 51.4228C54.0849 51.3833 54.286 51.4036 54.4688 51.481C54.6515 51.5584 54.8077 51.6895 54.9176 51.8576C55.0275 52.0258 55.0861 52.2235 55.0861 52.4257C55.0861 52.6969 54.9807 52.957 54.7932 53.1488C54.6056 53.3406 54.3513 53.4483 54.086 53.4483Z" fill="black"/>
</svg>
