<svg width="38" height="21" viewBox="0 0 38 21" fill="none" xmlns="http://www.w3.org/2000/svg">
<g filter="url(#filter0_d_2_2073)">
<path d="M8.63672 11.3306C10.2936 11.3306 11.6367 9.98742 11.6367 8.33057C11.6367 6.67371 10.2936 5.33057 8.63672 5.33057C6.97986 5.33057 5.63672 6.67371 5.63672 8.33057C5.63672 9.98742 6.97986 11.3306 8.63672 11.3306Z" fill="#949494"/>
<path d="M11.3867 8.33057C11.3867 9.84935 10.1555 11.0806 8.63672 11.0806C7.11794 11.0806 5.88672 9.84935 5.88672 8.33057C5.88672 6.81178 7.11794 5.58057 8.63672 5.58057C10.1555 5.58057 11.3867 6.81178 11.3867 8.33057Z" stroke="black" stroke-opacity="0.25" stroke-width="0.5"/>
<path d="M16.6367 11.3306C18.2936 11.3306 19.6367 9.98742 19.6367 8.33057C19.6367 6.67371 18.2936 5.33057 16.6367 5.33057C14.9799 5.33057 13.6367 6.67371 13.6367 8.33057C13.6367 9.98742 14.9799 11.3306 16.6367 11.3306Z" fill="#949494"/>
<path d="M19.3867 8.33057C19.3867 9.84935 18.1555 11.0806 16.6367 11.0806C15.1179 11.0806 13.8867 9.84935 13.8867 8.33057C13.8867 6.81178 15.1179 5.58057 16.6367 5.58057C18.1555 5.58057 19.3867 6.81178 19.3867 8.33057Z" stroke="black" stroke-opacity="0.25" stroke-width="0.5"/>
<path d="M24.6367 11.3306C26.2936 11.3306 27.6367 9.98742 27.6367 8.33057C27.6367 6.67371 26.2936 5.33057 24.6367 5.33057C22.9799 5.33057 21.6367 6.67371 21.6367 8.33057C21.6367 9.98742 22.9799 11.3306 24.6367 11.3306Z" fill="#949494"/>
<path d="M27.3867 8.33057C27.3867 9.84935 26.1555 11.0806 24.6367 11.0806C23.1179 11.0806 21.8867 9.84935 21.8867 8.33057C21.8867 6.81178 23.1179 5.58057 24.6367 5.58057C26.1555 5.58057 27.3867 6.81178 27.3867 8.33057Z" stroke="black" stroke-opacity="0.25" stroke-width="0.5"/>
</g>
<defs>
<filter id="filter0_d_2_2073" x="-3.36328" y="-4.66943" width="46" height="30" filterUnits="userSpaceOnUse" color-interpolation-filters="sRGB">
<feFlood flood-opacity="0" result="BackgroundImageFix"/>
<feColorMatrix in="SourceAlpha" type="matrix" values="0 0 0 0 0 0 0 0 0 0 0 0 0 0 0 0 0 0 127 0" result="hardAlpha"/>
<feOffset dx="3" dy="2"/>
<feGaussianBlur stdDeviation="3.5"/>
<feComposite in2="hardAlpha" operator="out"/>
<feColorMatrix type="matrix" values="0 0 0 0 0 0 0 0 0 0 0 0 0 0 0 0 0 0 0.25 0"/>
<feBlend mode="normal" in2="BackgroundImageFix" result="effect1_dropShadow_2_2073"/>
<feBlend mode="normal" in="SourceGraphic" in2="effect1_dropShadow_2_2073" result="shape"/>
</filter>
</defs>
</svg>
