<svg width="40" height="40" viewBox="0 0 40 40" fill="none" xmlns="http://www.w3.org/2000/svg">
<path d="M40 20C40 31.0457 31.0457 40 20 40C8.95431 40 0 31.0457 0 20C0 8.95431 8.95431 0 20 0C31.0457 0 40 8.95431 40 20Z" fill="#7CB518"/>
<path d="M20 5C20.5189 5 21.0166 5.20613 21.3835 5.57305C21.7504 5.93997 21.9565 6.43762 21.9565 6.95652V18.0435H33.0435C33.5624 18.0435 34.06 18.2496 34.4269 18.6165C34.7939 18.9834 35 19.4811 35 20C35 20.5189 34.7939 21.0166 34.4269 21.3835C34.06 21.7504 33.5624 21.9565 33.0435 21.9565H21.9565V33.0435C21.9565 33.5624 21.7504 34.06 21.3835 34.4269C21.0166 34.7939 20.5189 35 20 35C19.4811 35 18.9834 34.7939 18.6165 34.4269C18.2496 34.06 18.0435 33.5624 18.0435 33.0435V21.9565H6.95652C6.43762 21.9565 5.93997 21.7504 5.57305 21.3835C5.20613 21.0166 5 20.5189 5 20C5 19.4811 5.20613 18.9834 5.57305 18.6165C5.93997 18.2496 6.43762 18.0435 6.95652 18.0435H18.0435V6.95652C18.0435 6.43762 18.2496 5.93997 18.6165 5.57305C18.9834 5.20613 19.4811 5 20 5Z" fill="white"/>
</svg>
