<svg width="40" height="40" viewBox="0 0 40 40" fill="none" xmlns="http://www.w3.org/2000/svg">
<path d="M40 20C40 31.0457 31.0457 40 20 40C8.95431 40 0 31.0457 0 20C0 8.95431 8.95431 0 20 0C31.0457 0 40 8.95431 40 20Z" fill="#FFB600"/>
<path d="M12.0552 14.3158C12.0552 13.8181 12.1501 13.3254 12.3343 12.8656C12.5186 12.4059 12.7887 11.9881 13.1292 11.6362C13.4697 11.2843 13.8739 11.0052 14.3187 10.8148C14.7636 10.6243 15.2404 10.5263 15.7219 10.5263C16.2034 10.5263 16.6802 10.6243 17.1251 10.8148C17.5699 11.0052 17.9741 11.2843 18.3146 11.6362C18.6551 11.9881 18.9252 12.4059 19.1095 12.8656C19.2937 13.3254 19.3886 13.8181 19.3886 14.3158C19.3886 15.3208 19.0023 16.2847 18.3146 16.9954C17.627 17.706 16.6944 18.1053 15.7219 18.1053C14.7494 18.1053 13.8168 17.706 13.1292 16.9954C12.4415 16.2847 12.0552 15.3208 12.0552 14.3158ZM15.7219 8C14.1011 8 12.5467 8.66541 11.4007 9.84985C10.2546 11.0343 9.61079 12.6407 9.61079 14.3158C9.61079 15.9908 10.2546 17.5973 11.4007 18.7817C12.5467 19.9662 14.1011 20.6316 15.7219 20.6316C17.3427 20.6316 18.897 19.9662 20.0431 18.7817C21.1892 17.5973 21.833 15.9908 21.833 14.3158C21.833 12.6407 21.1892 11.0343 20.0431 9.84985C18.897 8.66541 17.3427 8 15.7219 8ZM24.2775 8H23.0552V10.5263H24.2775C24.759 10.5263 25.2358 10.6243 25.6806 10.8148C26.1255 11.0052 26.5297 11.2843 26.8702 11.6362C27.2107 11.9881 27.4807 12.4059 27.665 12.8656C27.8493 13.3254 27.9441 13.8181 27.9441 14.3158C27.9441 14.8134 27.8493 15.3062 27.665 15.766C27.4807 16.2257 27.2107 16.6435 26.8702 16.9954C26.5297 17.3472 26.1255 17.6264 25.6806 17.8168C25.2358 18.0072 24.759 18.1053 24.2775 18.1053H23.0552V20.6316H24.2775C25.8982 20.6316 27.4526 19.9662 28.5987 18.7817C29.7447 17.5973 30.3886 15.9908 30.3886 14.3158C30.3886 12.6407 29.7447 11.0343 28.5987 9.84985C27.4526 8.66541 25.8982 8 24.2775 8ZM5.33301 29.4737C5.33301 27.7986 5.97686 26.1922 7.12291 25.0077C8.26897 23.8233 9.82335 23.1579 11.4441 23.1579H19.9997C21.6204 23.1579 23.1748 23.8233 24.3209 25.0077C25.4669 26.1922 26.1108 27.7986 26.1108 29.4737V32H23.6663V29.4737C23.6663 28.4687 23.28 27.5048 22.5924 26.7941C21.9048 26.0835 20.9721 25.6842 19.9997 25.6842H11.4441C10.4717 25.6842 9.53903 26.0835 8.85139 26.7941C8.16376 27.5048 7.77745 28.4687 7.77745 29.4737V32H5.33301V29.4737ZM34.6663 29.4737C34.6663 28.6443 34.5083 27.823 34.2012 27.0567C33.894 26.2905 33.4439 25.5942 32.8764 25.0077C32.309 24.4213 31.6353 23.9561 30.8939 23.6387C30.1524 23.3213 29.3578 23.1579 28.5552 23.1579H27.333V25.6842H28.5552C29.5277 25.6842 30.4603 26.0835 31.148 26.7941C31.8356 27.5048 32.2219 28.4687 32.2219 29.4737V32H34.6663V29.4737Z" fill="white"/>
</svg>
