<svg width="109" height="105" viewBox="0 0 109 105" fill="none" xmlns="http://www.w3.org/2000/svg">
<path d="M23.2474 64.2996C23.138 52.0494 32.4147 41.6245 43.383 41.6718L106.124 41.9421L23.6059 104.461L23.2474 64.2996Z" fill="#001B79"/>
<path d="M40.2331 69.7026H41.7353V71.1195H38.731V56.9509H37.2288V72.5364H41.7353V73.9532H35.7266V55.5341H38.731V54.1172H43.2375C43.926 54.1172 44.5872 54.2168 45.2209 54.4161C45.8546 54.6153 46.4454 54.9142 46.993 55.3127C47.5329 54.9142 48.1197 54.6153 48.7534 54.4161C49.3872 54.2168 50.0522 54.1172 50.7485 54.1172H55.2551V55.5341H58.2595V64.5997L56.7573 63.9577V56.9509H55.2551V63.3157L53.7529 62.6626V55.5341H50.7485C50.193 55.5341 49.661 55.6226 49.1524 55.7997C48.6439 55.9768 48.1744 56.2388 47.7441 56.5856V63.3157L46.2419 63.9577V56.5856C45.8194 56.2462 45.3539 55.9879 44.8454 55.8108C44.3368 55.6337 43.8009 55.5414 43.2375 55.5341H40.2331V69.7026ZM56.7573 72.5253L51.4996 75.0159L46.2419 72.5253C46.2419 72.2596 46.2458 71.9792 46.2537 71.684C46.2615 71.3889 46.2928 71.09 46.3476 70.7874C46.4023 70.4849 46.4806 70.2008 46.5823 69.9351C46.684 69.6694 46.8248 69.4222 47.0048 69.1935L44.7397 68.2194V74.6616H43.2375V67.5774L51.4996 64.0352L59.7617 67.5774L55.9945 69.1935L56.0884 69.3152C56.2527 69.544 56.3778 69.7912 56.4639 70.0569C56.55 70.3225 56.6165 70.5919 56.6634 70.8649C56.7104 71.1379 56.7377 71.4184 56.7456 71.7062C56.7534 71.994 56.7573 72.267 56.7573 72.5253ZM51.4996 65.5849L46.8639 67.5774L51.4996 69.5698L56.1353 67.5774L51.4996 65.5849ZM51.4996 73.433L55.2551 71.6508C55.2473 71.459 55.2316 71.2855 55.2082 71.1306C55.1847 70.9756 55.1417 70.8243 55.0791 70.6767C55.0165 70.5291 54.9539 70.3852 54.8913 70.245C54.8287 70.1048 54.7387 69.9499 54.6214 69.7801L51.4996 71.1195L48.3779 69.7801C48.2605 69.9572 48.1666 70.1159 48.0962 70.2561C48.0258 70.3963 47.9632 70.5365 47.9084 70.6767C47.8537 70.8169 47.8185 70.9645 47.8028 71.1195C47.7872 71.2745 47.7715 71.4553 47.7559 71.6619L51.4996 73.433Z" fill="white"/>
</svg>
