<svg width="48" height="48" viewBox="0 0 48 48" fill="none" xmlns="http://www.w3.org/2000/svg">
<g filter="url(#filter0_d_91_3508)">
<path d="M44 20C44 31.0457 35.0457 40 24 40C12.9543 40 4 31.0457 4 20C4 8.95431 12.9543 0 24 0C35.0457 0 44 8.95431 44 20Z" fill="#FF0101"/>
</g>
<path d="M15.4685 33.5186L16.2084 34.3326L16.9484 33.5186L24.4561 25.2601L31.9093 33.5161L32.649 34.3354L33.3915 33.5186L36.5999 29.9894L37.2115 29.3167L36.5999 28.644L28.9634 20.2438L36.5976 11.9045L37.2136 11.2316L36.5999 10.5565L33.3915 7.02728L32.649 6.2105L31.9093 7.02985L24.4561 15.2858L16.9484 7.02728L16.2084 6.21334L15.4685 7.02728L12.2601 10.5565L11.6464 11.2316L12.2624 11.9045L19.8966 20.2438L12.2601 28.644L11.6485 29.3167L12.2601 29.9894L15.4685 33.5186Z" fill="white" stroke="#FF4800" stroke-width="2"/>
<defs>
<filter id="filter0_d_91_3508" x="0" y="0" width="48" height="48" filterUnits="userSpaceOnUse" color-interpolation-filters="sRGB">
<feFlood flood-opacity="0" result="BackgroundImageFix"/>
<feColorMatrix in="SourceAlpha" type="matrix" values="0 0 0 0 0 0 0 0 0 0 0 0 0 0 0 0 0 0 127 0" result="hardAlpha"/>
<feOffset dy="4"/>
<feGaussianBlur stdDeviation="2"/>
<feComposite in2="hardAlpha" operator="out"/>
<feColorMatrix type="matrix" values="0 0 0 0 0 0 0 0 0 0 0 0 0 0 0 0 0 0 0.25 0"/>
<feBlend mode="normal" in2="BackgroundImageFix" result="effect1_dropShadow_91_3508"/>
<feBlend mode="normal" in="SourceGraphic" in2="effect1_dropShadow_91_3508" result="shape"/>
</filter>
</defs>
</svg>
