<svg width="52" height="53" viewBox="0 0 52 53" fill="none" xmlns="http://www.w3.org/2000/svg">
<circle cx="26" cy="26.5" r="26" fill="#D9D9D9"/>
<g opacity="0.3">
<circle cx="25.5" cy="27" r="19.5" fill="#B1B1B1"/>
<path d="M32.5711 19.2141C31.8522 19.2141 31.1923 18.8016 30.8623 18.1652L30.0138 16.4563C29.4716 15.3839 28.0574 14.5 26.8553 14.5H24.1565C22.9426 14.5 21.5284 15.3839 20.9862 16.4563L20.1377 18.1652C19.8077 18.8016 19.1478 19.2141 18.4289 19.2141C15.8715 19.2141 13.8444 21.3708 14.0094 23.9164L14.6222 33.651C14.7637 36.0787 16.0718 38.0704 19.3245 38.0704H31.6755C34.9282 38.0704 36.2246 36.0787 36.3778 33.651L36.9906 23.9164C37.1556 21.3708 35.1285 19.2141 32.5711 19.2141ZM23.7322 20.6872H27.2678C27.751 20.6872 28.1517 21.0879 28.1517 21.5711C28.1517 22.0543 27.751 22.455 27.2678 22.455H23.7322C23.249 22.455 22.8483 22.0543 22.8483 21.5711C22.8483 21.0879 23.249 20.6872 23.7322 20.6872ZM25.5 33.4978C23.308 33.4978 21.5166 31.7182 21.5166 29.5144C21.5166 27.3105 23.2962 25.531 25.5 25.531C27.7038 25.531 29.4834 27.3105 29.4834 29.5144C29.4834 31.7182 27.6921 33.4978 25.5 33.4978Z" fill="#292D32"/>
</g>
</svg>
