<svg width="19" height="20" viewBox="0 0 19 20" fill="none" xmlns="http://www.w3.org/2000/svg">
<path d="M18.2692 19.9796H0.730769C0.331282 19.9796 0 19.6483 0 19.2488C0 18.8493 0.331282 18.5181 0.730769 18.5181H18.2692C18.6687 18.5181 19 18.8493 19 19.2488C19 19.6483 18.6687 19.9796 18.2692 19.9796Z" fill="black"/>
<path d="M16.341 1.93602C14.4507 0.0457631 12.5995 -0.00295478 10.6605 1.93602L9.48151 3.11499C9.38408 3.21243 9.3451 3.36833 9.38408 3.50474C10.1246 6.08679 12.1902 8.15243 14.7723 8.89292C14.8113 8.90267 14.8502 8.91241 14.8892 8.91241C14.9964 8.91241 15.0938 8.87344 15.1718 8.79549L16.341 7.61653C17.3056 6.66166 17.7733 5.73602 17.7733 4.80063C17.783 3.83602 17.3154 2.90064 16.341 1.93602Z" fill="black"/>
<path d="M13.0184 9.7788C12.7358 9.64239 12.463 9.50598 12.1999 9.35008C11.9856 9.22342 11.7809 9.08701 11.5763 8.94085C11.4107 8.83367 11.2158 8.67778 11.0307 8.52188C11.0112 8.51213 10.943 8.45367 10.865 8.37572C10.5435 8.10288 10.183 7.75212 9.86146 7.36237C9.83222 7.34288 9.78351 7.27468 9.7153 7.18699C9.61787 7.07006 9.45222 6.87519 9.30607 6.65109C9.18915 6.50494 9.05274 6.29058 8.92607 6.07622C8.77017 5.81314 8.63376 5.55006 8.49735 5.27724C8.4767 5.23302 8.45672 5.18901 8.43743 5.14526C8.29361 4.82048 7.87006 4.72553 7.61897 4.97668L2.03737 10.5583C1.91071 10.685 1.79378 10.9285 1.76455 11.0942L1.2384 14.826C1.14096 15.4885 1.32609 16.1121 1.73532 16.5311C2.08609 16.8721 2.57327 17.0573 3.09942 17.0573C3.21635 17.0573 3.33327 17.0475 3.45019 17.028L7.19173 16.5019C7.36712 16.4726 7.61069 16.3557 7.72761 16.2291L13.3022 10.6545C13.5552 10.4015 13.4598 9.96753 13.1308 9.82713C13.0938 9.81134 13.0563 9.79517 13.0184 9.7788Z" fill="black"/>
</svg>
