<svg width="68" height="68" viewBox="0 0 68 68" fill="none" xmlns="http://www.w3.org/2000/svg">
<g filter="url(#filter0_d_672_6904)">
<path d="M64 30C64 46.5685 50.5685 60 34 60C17.4315 60 4 46.5685 4 30C4 13.4315 17.4315 0 34 0C50.5685 0 64 13.4315 64 30Z" fill="#FFB600"/>
</g>
<path d="M23.942 43.7071L24.6491 44.4142L25.3562 43.7071L34.0301 35.0332L42.6413 43.7046L43.3484 44.4167L44.058 43.7071L47.7071 40.058L48.4142 39.3509L47.7071 38.6438L39.0332 29.9699L47.7046 21.3587L48.4167 20.6516L47.7071 19.942L44.058 16.2929L43.3484 15.5833L42.6413 16.2954L34.0301 24.9668L25.3562 16.2929L24.6491 15.5858L23.942 16.2929L20.2929 19.942L19.5833 20.6516L20.2954 21.3587L28.9668 29.9699L20.2929 38.6438L19.5858 39.3509L20.2929 40.058L23.942 43.7071Z" fill="white" stroke="#FF4800" stroke-width="2"/>
<defs>
<filter id="filter0_d_672_6904" x="0" y="0" width="68" height="68" filterUnits="userSpaceOnUse" color-interpolation-filters="sRGB">
<feFlood flood-opacity="0" result="BackgroundImageFix"/>
<feColorMatrix in="SourceAlpha" type="matrix" values="0 0 0 0 0 0 0 0 0 0 0 0 0 0 0 0 0 0 127 0" result="hardAlpha"/>
<feOffset dy="4"/>
<feGaussianBlur stdDeviation="2"/>
<feComposite in2="hardAlpha" operator="out"/>
<feColorMatrix type="matrix" values="0 0 0 0 0 0 0 0 0 0 0 0 0 0 0 0 0 0 0.25 0"/>
<feBlend mode="normal" in2="BackgroundImageFix" result="effect1_dropShadow_672_6904"/>
<feBlend mode="normal" in="SourceGraphic" in2="effect1_dropShadow_672_6904" result="shape"/>
</filter>
</defs>
</svg>
