<svg width="43" height="37" viewBox="0 0 43 37" fill="none" xmlns="http://www.w3.org/2000/svg">
<g filter="url(#filter0_d_98_174)">
<path d="M21.5006 11.6C23.0475 11.6 24.531 10.9889 25.6248 9.90122C26.7187 8.81351 27.3332 7.33825 27.3332 5.8C27.3332 4.26174 26.7187 2.78649 25.6248 1.69878C24.531 0.61107 23.0475 0 21.5006 0C19.9537 0 18.4702 0.61107 17.3764 1.69878C16.2826 2.78649 15.6681 4.26174 15.6681 5.8C15.6681 7.33825 16.2826 8.81351 17.3764 9.90122C18.4702 10.9889 19.9537 11.6 21.5006 11.6ZM13.7239 9.66666C13.7239 10.6922 13.3142 11.6757 12.585 12.4008C11.8558 13.1259 10.8668 13.5333 9.8355 13.5333C8.80424 13.5333 7.81522 13.1259 7.08601 12.4008C6.3568 11.6757 5.94713 10.6922 5.94713 9.66666C5.94713 8.64116 6.3568 7.65766 7.08601 6.93252C7.81522 6.20738 8.80424 5.8 9.8355 5.8C10.8668 5.8 11.8558 6.20738 12.585 6.93252C13.3142 7.65766 13.7239 8.64116 13.7239 9.66666ZM4.9556 23.8303C4.6237 23.6427 4.37515 23.3375 4.25958 22.9757C3.91702 21.8724 3.91343 20.6926 4.24926 19.5872C4.58509 18.4819 5.24506 17.5014 6.14465 16.7713C7.04423 16.0412 8.1425 15.5947 9.2988 15.489C10.4551 15.3833 11.6168 15.6233 12.6351 16.1781C10.5425 18.2231 9.23267 20.93 8.93146 23.8322C8.88674 24.2614 8.90424 24.6867 8.98006 25.0966C7.56112 24.9746 6.18684 24.5422 4.9556 23.8303ZM34.0212 25.0947C35.44 24.9732 36.8142 24.5415 38.0456 23.8303C38.3768 23.6423 38.6246 23.3372 38.7397 22.9757C39.0828 21.8723 39.0868 20.6921 38.7512 19.5864C38.4156 18.4807 37.7557 17.4999 36.856 16.7695C35.9563 16.039 34.8578 15.5924 33.7012 15.4867C32.5446 15.381 31.3826 15.6211 30.3641 16.1762C32.4586 18.2211 33.7699 20.9288 34.0717 23.8322C34.115 24.2539 34.098 24.6796 34.0212 25.0966V25.0947ZM37.0541 9.66666C37.0541 10.6922 36.6444 11.6757 35.9152 12.4008C35.186 13.1259 34.197 13.5333 33.1657 13.5333C32.1345 13.5333 31.1454 13.1259 30.4162 12.4008C29.687 11.6757 29.2773 10.6922 29.2773 9.66666C29.2773 8.64116 29.687 7.65766 30.4162 6.93252C31.1454 6.20738 32.1345 5.8 33.1657 5.8C34.197 5.8 35.186 6.20738 35.9152 6.93252C36.6444 7.65766 37.0541 8.64116 37.0541 9.66666ZM12.3707 25.5007C12.179 25.3299 12.0303 25.1167 11.9368 24.8782C11.8432 24.6398 11.8074 24.3828 11.8322 24.128C12.0795 21.749 13.2049 19.5456 14.9908 17.9437C16.7768 16.3419 19.0965 15.4553 21.5016 15.4553C23.9067 15.4553 26.2264 16.3419 28.0124 17.9437C29.7983 19.5456 30.9237 21.749 31.171 24.128C31.1959 24.3828 31.1602 24.6398 31.0666 24.8783C30.973 25.1168 30.8243 25.33 30.6324 25.5007C28.1326 27.7568 24.8765 29.0045 21.5006 29C18.1254 29.0042 14.8699 27.7565 12.3707 25.5007Z" fill="#D9D9D9"/>
</g>
<defs>
<filter id="filter0_d_98_174" x="0" y="0" width="43" height="37" filterUnits="userSpaceOnUse" color-interpolation-filters="sRGB">
<feFlood flood-opacity="0" result="BackgroundImageFix"/>
<feColorMatrix in="SourceAlpha" type="matrix" values="0 0 0 0 0 0 0 0 0 0 0 0 0 0 0 0 0 0 127 0" result="hardAlpha"/>
<feOffset dy="4"/>
<feGaussianBlur stdDeviation="2"/>
<feComposite in2="hardAlpha" operator="out"/>
<feColorMatrix type="matrix" values="0 0 0 0 0 0 0 0 0 0 0 0 0 0 0 0 0 0 0.25 0"/>
<feBlend mode="normal" in2="BackgroundImageFix" result="effect1_dropShadow_98_174"/>
<feBlend mode="normal" in="SourceGraphic" in2="effect1_dropShadow_98_174" result="shape"/>
</filter>
</defs>
</svg>
