<svg width="43" height="43" viewBox="0 0 43 43" fill="none" xmlns="http://www.w3.org/2000/svg">
<g filter="url(#filter0_d_98_177)">
<path d="M21.504 23.625C19.834 23.625 18.2323 22.9797 17.0514 21.831C15.8706 20.6824 15.2071 19.1245 15.2071 17.5C15.2071 15.8756 15.8706 14.3176 17.0514 13.169C18.2323 12.0203 19.834 11.375 21.504 11.375C23.174 11.375 24.7756 12.0203 25.9565 13.169C27.1374 14.3176 27.8008 15.8756 27.8008 17.5C27.8008 19.1245 27.1374 20.6824 25.9565 21.831C24.7756 22.9797 23.174 23.625 21.504 23.625ZM34.8712 19.1975C34.9432 18.6375 34.9972 18.0775 34.9972 17.5C34.9972 16.9225 34.9432 16.345 34.8712 15.75L38.6673 12.8975C39.0092 12.635 39.0991 12.1625 38.8832 11.7775L35.285 5.7225C35.0691 5.3375 34.5834 5.18 34.1876 5.3375L29.7078 7.0875C28.7723 6.405 27.8008 5.81 26.6674 5.3725L26.0017 0.735003C25.9652 0.528883 25.8548 0.342 25.6901 0.207468C25.5255 0.0729362 25.3172 -0.000559605 25.1022 3.20857e-06H17.9058C17.456 3.20857e-06 17.0782 0.315003 17.0062 0.735003L16.3406 5.3725C15.2071 5.81 14.2356 6.405 13.3001 7.0875L8.82037 5.3375C8.42457 5.18 7.93881 5.3375 7.72292 5.7225L4.12473 11.7775C3.89085 12.1625 3.9988 12.635 4.34063 12.8975L8.13671 15.75C8.06475 16.345 8.01078 16.9225 8.01078 17.5C8.01078 18.0775 8.06475 18.6375 8.13671 19.1975L4.34063 22.1025C3.9988 22.365 3.89085 22.8375 4.12473 23.2225L7.72292 29.2775C7.93881 29.6625 8.42457 29.8025 8.82037 29.6625L13.3001 27.895C14.2356 28.595 15.2071 29.19 16.3406 29.6275L17.0062 34.265C17.0782 34.685 17.456 35 17.9058 35H25.1022C25.5519 35 25.9297 34.685 26.0017 34.265L26.6674 29.6275C27.8008 29.1725 28.7723 28.595 29.7078 27.895L34.1876 29.6625C34.5834 29.8025 35.0691 29.6625 35.285 29.2775L38.8832 23.2225C39.0991 22.8375 39.0092 22.365 38.6673 22.1025L34.8712 19.1975Z" fill="#D9D9D9"/>
</g>
<defs>
<filter id="filter0_d_98_177" x="0" y="0" width="43" height="43" filterUnits="userSpaceOnUse" color-interpolation-filters="sRGB">
<feFlood flood-opacity="0" result="BackgroundImageFix"/>
<feColorMatrix in="SourceAlpha" type="matrix" values="0 0 0 0 0 0 0 0 0 0 0 0 0 0 0 0 0 0 127 0" result="hardAlpha"/>
<feOffset dy="4"/>
<feGaussianBlur stdDeviation="2"/>
<feComposite in2="hardAlpha" operator="out"/>
<feColorMatrix type="matrix" values="0 0 0 0 0 0 0 0 0 0 0 0 0 0 0 0 0 0 0.25 0"/>
<feBlend mode="normal" in2="BackgroundImageFix" result="effect1_dropShadow_98_177"/>
<feBlend mode="normal" in="SourceGraphic" in2="effect1_dropShadow_98_177" result="shape"/>
</filter>
</defs>
</svg>
