<svg width="55" height="33" viewBox="0 0 55 33" fill="none" xmlns="http://www.w3.org/2000/svg">
<path d="M43.5417 27.5V32.0833H16.0417V27.5C16.0417 27.5 16.0417 18.3333 29.7917 18.3333C43.5417 18.3333 43.5417 27.5 43.5417 27.5ZM36.6667 6.875C36.6667 5.51526 36.2635 4.18605 35.508 3.05546C34.7526 1.92487 33.6789 1.04368 32.4226 0.523331C31.1664 0.00297886 29.784 -0.133169 28.4504 0.132104C27.1168 0.397378 25.8918 1.05216 24.9303 2.01364C23.9688 2.97513 23.314 4.20014 23.0488 5.53376C22.7835 6.86738 22.9196 8.24971 23.44 9.50595C23.9603 10.7622 24.8415 11.8359 25.9721 12.5914C27.1027 13.3468 28.4319 13.75 29.7917 13.75C31.615 13.75 33.3637 13.0257 34.653 11.7364C35.9423 10.447 36.6667 8.69837 36.6667 6.875ZM44 18.4708C45.2527 19.6265 46.2626 21.0202 46.9709 22.5704C47.6791 24.1207 48.0715 25.7965 48.125 27.5V32.0833H55V27.5C55 27.5 55 19.5938 44 18.4708ZM41.25 2.61511e-06C40.5576 0.000416979 39.8695 0.108658 39.2104 0.320836C40.5512 2.24347 41.27 4.53105 41.27 6.875C41.27 9.21896 40.5512 11.5065 39.2104 13.4292C39.8695 13.6413 40.5576 13.7496 41.25 13.75C43.0734 13.75 44.822 13.0257 46.1114 11.7364C47.4007 10.447 48.125 8.69837 48.125 6.875C48.125 5.05164 47.4007 3.30296 46.1114 2.01364C44.822 0.724331 43.0734 2.61511e-06 41.25 2.61511e-06ZM18.3333 11.4583H11.4583V4.58334H6.875V11.4583H0V16.0417H6.875V22.9167H11.4583V16.0417H18.3333V11.4583Z" fill="white"/>
</svg>
