<svg width="15" height="16" viewBox="0 0 15 16" fill="none" xmlns="http://www.w3.org/2000/svg">
<path d="M14.9552 14.6845L12.6926 12.4219C11.2024 10.9317 11.2502 8.49514 11.2502 6.38767C11.2502 4.88393 10.6633 3.47393 9.60208 2.41081C8.54083 1.34769 7.12709 0.762695 5.62522 0.762695C4.12335 0.762695 2.70961 1.34957 1.64836 2.41081C0.585241 3.47206 0.000244141 4.88393 0.000244141 6.38767C0.000244141 7.88954 0.587116 9.30328 1.64836 10.3645C2.70961 11.4276 4.12148 12.0126 5.62522 12.0126C7.73192 12.0126 10.1663 11.9652 11.6562 13.4545L13.9202 15.7176C13.9345 15.7319 13.9514 15.7432 13.9701 15.751C13.9887 15.7587 14.0087 15.7627 14.0289 15.7627C14.0491 15.7627 14.0691 15.7587 14.0878 15.751C14.1065 15.7432 14.1234 15.7319 14.1377 15.7176L14.9552 14.902C14.9695 14.8877 14.9808 14.8708 14.9885 14.8521C14.9963 14.8335 15.0002 14.8135 15.0002 14.7933C15.0002 14.7731 14.9963 14.7531 14.9885 14.7344C14.9808 14.7157 14.9695 14.6988 14.9552 14.6845ZM8.59521 9.35766C7.80021 10.1508 6.74646 10.5877 5.62522 10.5877C4.50397 10.5877 3.45023 10.1508 2.65523 9.35766C1.86211 8.56266 1.42524 7.50892 1.42524 6.38767C1.42524 5.26643 1.86211 4.21081 2.65523 3.41768C3.45023 2.62456 4.50397 2.18769 5.62522 2.18769C6.74646 2.18769 7.80208 2.62269 8.59521 3.41768C9.38833 4.21268 9.8252 5.26643 9.8252 6.38767C9.8252 7.50892 9.38833 8.56454 8.59521 9.35766Z" fill="#FF8500"/>
</svg>
