<svg width="20" height="20" viewBox="0 0 20 20" fill="none" xmlns="http://www.w3.org/2000/svg">
<circle cx="10" cy="10" r="10" fill="#FFB600"/>
<path d="M13.875 13.7143V15H6.375V13.7143C6.375 13.7143 6.375 11.1429 10.125 11.1429C13.875 11.1429 13.875 13.7143 13.875 13.7143ZM12 7.92857C12 7.54714 11.89 7.17427 11.684 6.85712C11.478 6.53996 11.1851 6.29277 10.8425 6.1468C10.4999 6.00084 10.1229 5.96264 9.75921 6.03706C9.39549 6.11147 9.0614 6.29515 8.79917 6.56487C8.53695 6.83458 8.35838 7.17822 8.28603 7.55233C8.21368 7.92643 8.25081 8.3142 8.39273 8.6666C8.53464 9.019 8.77496 9.32021 9.08331 9.53212C9.39165 9.74403 9.75416 9.85714 10.125 9.85714C10.6223 9.85714 11.0992 9.65396 11.4508 9.29228C11.8025 8.9306 12 8.44006 12 7.92857ZM14 11.1814C14.3416 11.5056 14.6171 11.8966 14.8102 12.3314C15.0034 12.7663 15.1104 13.2364 15.125 13.7143V15H17V13.7143C17 13.7143 17 11.4964 14 11.1814ZM13.25 6C13.0612 6.00012 12.8735 6.03048 12.6938 6.09C13.0594 6.62934 13.2555 7.27105 13.2555 7.92857C13.2555 8.5861 13.0594 9.22781 12.6938 9.76714C12.8735 9.82666 13.0612 9.85703 13.25 9.85714C13.7473 9.85714 14.2242 9.65396 14.5758 9.29228C14.9275 8.9306 15.125 8.44006 15.125 7.92857C15.125 7.41708 14.9275 6.92654 14.5758 6.56487C14.2242 6.20319 13.7473 6 13.25 6ZM7 9.21429H5.125V7.28571H3.875V9.21429H2V10.5H3.875V12.4286H5.125V10.5H7V9.21429Z" fill="white"/>
</svg>
