<svg width="33" height="34" viewBox="0 0 33 34" fill="none" xmlns="http://www.w3.org/2000/svg">
<g filter="url(#filter0_d_885_12367)">
<path d="M17.2447 27.0576L15.7583 28.5318C15.1289 29.1561 14.1111 29.1561 13.4885 28.5318L0.472046 15.6289C-0.157349 15.0047 -0.157349 13.9953 0.472046 13.3777L13.4885 0.46817C14.1178 -0.156057 15.1356 -0.156057 15.7583 0.46817L17.2447 1.94241C17.8808 2.57328 17.8674 3.60259 17.2179 4.22017L9.14965 11.8437H28.393C29.2836 11.8437 30 12.5543 30 13.4375V15.5625C30 16.4457 29.2836 17.1563 28.393 17.1563H9.14965L17.2179 24.7798C17.8741 25.3974 17.8875 26.4267 17.2447 27.0576Z" fill="#D9D9D9"/>
</g>
<defs>
<filter id="filter0_d_885_12367" x="0" y="0" width="33" height="34" filterUnits="userSpaceOnUse" color-interpolation-filters="sRGB">
<feFlood flood-opacity="0" result="BackgroundImageFix"/>
<feColorMatrix in="SourceAlpha" type="matrix" values="0 0 0 0 0 0 0 0 0 0 0 0 0 0 0 0 0 0 127 0" result="hardAlpha"/>
<feOffset dx="3" dy="5"/>
<feComposite in2="hardAlpha" operator="out"/>
<feColorMatrix type="matrix" values="0 0 0 0 0 0 0 0 0 0 0 0 0 0 0 0 0 0 0.25 0"/>
<feBlend mode="normal" in2="BackgroundImageFix" result="effect1_dropShadow_885_12367"/>
<feBlend mode="normal" in="SourceGraphic" in2="effect1_dropShadow_885_12367" result="shape"/>
</filter>
</defs>
</svg>
