<svg width="22" height="29" viewBox="0 0 22 29" fill="none" xmlns="http://www.w3.org/2000/svg">
<path d="M20.6126 17.8799L19.2475 15.5036C18.9608 14.9739 18.7015 13.9718 18.7015 13.3849V9.76312C18.7015 6.39902 16.8177 3.493 14.1011 2.13305C13.3913 0.816035 12.0808 6.10352e-05 10.5792 6.10352e-05C9.09125 6.10352e-05 7.75352 0.844666 7.04367 2.17599C4.38175 3.56458 2.53888 6.44196 2.53888 9.76312V13.3849C2.53888 13.9718 2.27951 14.9739 1.99284 15.4893L0.614101 17.8799C0.0680648 18.839 -0.0547929 19.8984 0.286479 20.8718C0.614101 21.8309 1.3922 22.5753 2.40237 22.9332C5.05064 23.878 7.83542 24.3361 10.6202 24.3361C13.4049 24.3361 16.1897 23.878 18.838 22.9475C19.7936 22.6183 20.5307 21.8596 20.8856 20.8718C21.2405 19.8841 21.145 18.7961 20.6126 17.8799Z" fill="black"/>
<path d="M14.4559 25.5857C13.8826 27.2463 12.3673 28.4345 10.5927 28.4345C9.51431 28.4345 8.44954 27.9764 7.69873 27.1604C7.2619 26.731 6.93428 26.1583 6.74316 25.5714C6.92063 25.6 7.09809 25.6144 7.2892 25.643C7.60317 25.6859 7.9308 25.7289 8.25843 25.7575C9.03653 25.8291 9.82828 25.872 10.62 25.872C11.3981 25.872 12.1762 25.8291 12.9407 25.7575C13.2274 25.7289 13.514 25.7146 13.787 25.6716C14.0055 25.643 14.2239 25.6144 14.4559 25.5857Z" fill="black"/>
</svg>
