<svg width="38" height="40" viewBox="0 0 38 40" fill="none" xmlns="http://www.w3.org/2000/svg">
<g filter="url(#filter0_d_1066_31733)">
<circle cx="17.5" cy="17.5" r="17.5" fill="#FFB600"/>
<path d="M17.7847 27.661C19.1644 27.661 20.2835 26.5554 20.2835 25.1913H15.2858C15.2858 26.5554 16.405 27.661 17.7847 27.661ZM26.1983 21.8837C25.4436 21.0826 24.0315 19.8774 24.0315 15.9297C24.0315 12.9312 21.9034 10.5309 19.0339 9.94205V9.13783C19.0339 8.45595 18.4745 7.90295 17.7847 7.90295C17.0948 7.90295 16.5355 8.45595 16.5355 9.13783V9.94205C13.6659 10.5309 11.5378 12.9312 11.5378 15.9297C11.5378 19.8774 10.1257 21.0826 9.37102 21.8837C9.13665 22.1326 9.03274 22.4301 9.03469 22.7215C9.03899 23.3544 9.54172 23.9564 10.2886 23.9564H25.2807C26.0276 23.9564 26.5307 23.3544 26.5346 22.7215C26.5366 22.4301 26.4327 22.1322 26.1983 21.8837Z" fill="#D9D9D9"/>
</g>
<defs>
<filter id="filter0_d_1066_31733" x="0" y="0" width="38" height="40" filterUnits="userSpaceOnUse" color-interpolation-filters="sRGB">
<feFlood flood-opacity="0" result="BackgroundImageFix"/>
<feColorMatrix in="SourceAlpha" type="matrix" values="0 0 0 0 0 0 0 0 0 0 0 0 0 0 0 0 0 0 127 0" result="hardAlpha"/>
<feOffset dx="3" dy="5"/>
<feComposite in2="hardAlpha" operator="out"/>
<feColorMatrix type="matrix" values="0 0 0 0 0 0 0 0 0 0 0 0 0 0 0 0 0 0 0.25 0"/>
<feBlend mode="normal" in2="BackgroundImageFix" result="effect1_dropShadow_1066_31733"/>
<feBlend mode="normal" in="SourceGraphic" in2="effect1_dropShadow_1066_31733" result="shape"/>
</filter>
</defs>
</svg>
