<svg width="25" height="26" viewBox="0 0 25 26" fill="none" xmlns="http://www.w3.org/2000/svg">
<g filter="url(#filter0_d_573_5632)">
<path d="M11.7002 0C5.25341 0 0 5.25341 0 11.7002C0 18.1471 5.25341 23.4005 11.7002 23.4005C18.1471 23.4005 23.4005 18.1471 23.4005 11.7002C23.4005 5.25341 18.1471 0 11.7002 0ZM10.8227 7.02015C10.8227 6.54044 11.2205 6.14263 11.7002 6.14263C12.18 6.14263 12.5778 6.54044 12.5778 7.02015V12.8703C12.5778 13.35 12.18 13.7478 11.7002 13.7478C11.2205 13.7478 10.8227 13.35 10.8227 12.8703V7.02015ZM12.7767 16.825C12.7182 16.9771 12.6363 17.0941 12.531 17.2111C12.414 17.3164 12.2853 17.3983 12.1449 17.4568C12.0045 17.5153 11.8524 17.5504 11.7002 17.5504C11.5481 17.5504 11.396 17.5153 11.2556 17.4568C11.1152 17.3983 10.9865 17.3164 10.8695 17.2111C10.7642 17.0941 10.6823 16.9771 10.6238 16.825C10.5653 16.6846 10.5302 16.5325 10.5302 16.3803C10.5302 16.2282 10.5653 16.0761 10.6238 15.9357C10.6823 15.7953 10.7642 15.6666 10.8695 15.5496C10.9865 15.4443 11.1152 15.3624 11.2556 15.3039C11.5364 15.1869 11.8641 15.1869 12.1449 15.3039C12.2853 15.3624 12.414 15.4443 12.531 15.5496C12.6363 15.6666 12.7182 15.7953 12.7767 15.9357C12.8352 16.0761 12.8703 16.2282 12.8703 16.3803C12.8703 16.5325 12.8352 16.6846 12.7767 16.825Z" fill="black"/>
</g>
<defs>
<filter id="filter0_d_573_5632" x="0" y="0" width="24.4004" height="25.4005" filterUnits="userSpaceOnUse" color-interpolation-filters="sRGB">
<feFlood flood-opacity="0" result="BackgroundImageFix"/>
<feColorMatrix in="SourceAlpha" type="matrix" values="0 0 0 0 0 0 0 0 0 0 0 0 0 0 0 0 0 0 127 0" result="hardAlpha"/>
<feOffset dx="1" dy="2"/>
<feComposite in2="hardAlpha" operator="out"/>
<feColorMatrix type="matrix" values="0 0 0 0 0 0 0 0 0 0 0 0 0 0 0 0 0 0 0.25 0"/>
<feBlend mode="normal" in2="BackgroundImageFix" result="effect1_dropShadow_573_5632"/>
<feBlend mode="normal" in="SourceGraphic" in2="effect1_dropShadow_573_5632" result="shape"/>
</filter>
</defs>
</svg>
