<svg width="40" height="40" viewBox="0 0 40 40" fill="none" xmlns="http://www.w3.org/2000/svg">
<path d="M40 20C40 31.0457 31.0457 40 20 40C8.95431 40 0 31.0457 0 20C0 8.95431 8.95431 0 20 0C31.0457 0 40 8.95431 40 20Z" fill="white"/>
<path d="M18 14H22V10H18M20 36C11.18 36 4 28.82 4 20C4 11.18 11.18 4 20 4C28.82 4 36 11.18 36 20C36 28.82 28.82 36 20 36ZM20 0C17.3736 0 14.7728 0.517315 12.3463 1.52241C9.91982 2.5275 7.71504 4.00069 5.85786 5.85786C2.10714 9.60859 0 14.6957 0 20C0 25.3043 2.10714 30.3914 5.85786 34.1421C7.71504 35.9993 9.91982 37.4725 12.3463 38.4776C14.7728 39.4827 17.3736 40 20 40C25.3043 40 30.3914 37.8929 34.1421 34.1421C37.8929 30.3914 40 25.3043 40 20C40 17.3736 39.4827 14.7728 38.4776 12.3463C37.4725 9.91982 35.9993 7.71504 34.1421 5.85786C32.285 4.00069 30.0802 2.5275 27.6537 1.52241C25.2272 0.517315 22.6264 0 20 0ZM18 30H22V18H18V30Z" fill="black"/>
</svg>
