<svg width="22" height="22" viewBox="0 0 22 22" fill="none" xmlns="http://www.w3.org/2000/svg">
<circle cx="11" cy="11" r="11" fill="white"/>
<path d="M11 0C4.93466 0 0 4.93466 0 11C0 17.0653 4.93466 22 11 22C17.0653 22 22 17.0653 22 11C22 4.93466 17.0653 0 11 0ZM14.6649 5.08591C15.423 5.08696 16.1638 5.31272 16.7936 5.73465C17.4234 6.15659 17.914 6.75576 18.2034 7.45645C18.4928 8.15714 18.568 8.92789 18.4194 9.67129C18.2709 10.4147 17.9053 11.0974 17.3689 11.6331C16.8325 12.1687 16.1493 12.5334 15.4057 12.6809C14.6621 12.8284 13.8914 12.7522 13.1911 12.4618C12.4908 12.1715 11.8924 11.68 11.4713 11.0496C11.0502 10.4192 10.8255 9.67814 10.8255 8.92005C10.8258 8.41619 10.9254 7.91734 11.1186 7.45198C11.3117 6.98661 11.5946 6.56384 11.9511 6.20781C12.3076 5.85178 12.7308 5.56945 13.1964 5.37696C13.6621 5.18446 14.1611 5.08557 14.6649 5.08591ZM6.4625 6.47995C7.08278 6.48079 7.68889 6.66549 8.20423 7.01071C8.71957 7.35593 9.12101 7.84617 9.3578 8.41947C9.59459 8.99278 9.65611 9.62342 9.53459 10.2317C9.41306 10.8399 9.11395 11.3985 8.67505 11.8368C8.23615 12.2751 7.67716 12.5735 7.06874 12.6942C6.46031 12.8149 5.82976 12.7525 5.25677 12.515C4.68379 12.2774 4.19408 11.8753 3.84956 11.3595C3.50504 10.8437 3.32115 10.2373 3.32115 9.61707C3.32136 9.2048 3.40279 8.79661 3.56078 8.41581C3.71877 8.03502 3.95024 7.68908 4.24195 7.39776C4.53367 7.10644 4.87992 6.87544 5.26093 6.71796C5.64193 6.56048 6.05023 6.4796 6.4625 6.47995ZM2.4512 14.6771C3.74688 13.9742 5.40587 13.6225 6.4625 13.6225C7.25577 13.6225 8.2775 13.7812 9.28284 14.162C8.60891 14.538 8.00144 15.0224 7.48476 15.5957C6.78721 16.3889 6.38688 17.3366 6.38688 18.2838V19.0771C4.63531 18.0738 3.25483 16.5314 2.4512 14.6797V14.6771ZM11 20.3077C9.92918 20.3086 8.86631 20.1237 7.85865 19.7614V18.3309C7.85865 15.5497 12.3935 14.1482 14.6649 14.1482C15.8812 14.1482 17.7523 14.5517 19.2241 15.3545C18.4321 16.849 17.2482 18.0996 15.7993 18.9722C14.3504 19.8448 12.6913 20.3065 11 20.3077Z" fill="#7CB518"/>
</svg>
