<svg width="42" height="42" viewBox="0 0 42 42" fill="none" xmlns="http://www.w3.org/2000/svg">
<path fill-rule="evenodd" clip-rule="evenodd" d="M29.7917 27.5C32.7846 27.5 35.3329 29.4135 36.2771 32.0833H38.9583C39.5661 32.0833 40.149 32.3248 40.5788 32.7545C41.0086 33.1843 41.25 33.7672 41.25 34.375C41.25 34.9828 41.0086 35.5657 40.5788 35.9955C40.149 36.4252 39.5661 36.6667 38.9583 36.6667H36.2771C35.8036 38.0085 34.9256 39.1705 33.764 39.9924C32.6025 40.8143 31.2146 41.2556 29.7917 41.2556C28.3687 41.2556 26.9808 40.8143 25.8193 39.9924C24.6577 39.1705 23.7797 38.0085 23.3063 36.6667H2.29167C1.68388 36.6667 1.10098 36.4252 0.671214 35.9955C0.241443 35.5657 0 34.9828 0 34.375C0 33.7672 0.241443 33.1843 0.671214 32.7545C1.10098 32.3248 1.68388 32.0833 2.29167 32.0833H23.3063C23.7806 30.7425 24.6591 29.5818 25.8205 28.761C26.982 27.9401 28.3694 27.4996 29.7917 27.5ZM29.7917 32.0833C29.1839 32.0833 28.601 32.3248 28.1712 32.7545C27.7414 33.1843 27.5 33.7672 27.5 34.375C27.5 34.9828 27.7414 35.5657 28.1712 35.9955C28.601 36.4252 29.1839 36.6667 29.7917 36.6667C30.3995 36.6667 30.9824 36.4252 31.4121 35.9955C31.8419 35.5657 32.0833 34.9828 32.0833 34.375C32.0833 33.7672 31.8419 33.1843 31.4121 32.7545C30.9824 32.3248 30.3995 32.0833 29.7917 32.0833ZM11.4583 13.75C12.8081 13.7498 14.1281 14.147 15.2536 14.8919C16.3792 15.6369 17.2606 16.6967 17.7879 17.9392L17.9415 18.3333H38.9583C39.5424 18.334 40.1042 18.5576 40.529 18.9586C40.9537 19.3596 41.2093 19.9076 41.2435 20.4907C41.2778 21.0738 41.088 21.648 40.7131 22.0959C40.3383 22.5438 39.8065 22.8316 39.2265 22.9006L38.9583 22.9167H17.9438C17.4817 24.2236 16.6356 25.3604 15.5163 26.178C14.3969 26.9956 13.0566 27.4559 11.6711 27.4985C10.2856 27.5412 8.91956 27.1641 7.75209 26.4168C6.58461 25.6695 5.6702 24.5869 5.12875 23.3108L4.97292 22.9167H2.29167C1.70757 22.916 1.14576 22.6924 0.721031 22.2914C0.296302 21.8904 0.0407115 21.3424 0.00648056 20.7593C-0.0277503 20.1762 0.161963 19.602 0.536857 19.1541C0.911751 18.7062 1.44353 18.4184 2.02354 18.3494L2.29167 18.3333H4.97292C5.44732 16.9925 6.32574 15.8318 7.48721 15.011C8.64869 14.1901 10.0361 13.7496 11.4583 13.75ZM11.4583 18.3333C10.8505 18.3333 10.2677 18.5748 9.83788 19.0045C9.40811 19.4343 9.16667 20.0172 9.16667 20.625C9.16667 21.2328 9.40811 21.8157 9.83788 22.2455C10.2677 22.6752 10.8505 22.9167 11.4583 22.9167C12.0661 22.9167 12.649 22.6752 13.0788 22.2455C13.5086 21.8157 13.75 21.2328 13.75 20.625C13.75 20.0172 13.5086 19.4343 13.0788 19.0045C12.649 18.5748 12.0661 18.3333 11.4583 18.3333ZM29.7917 2.8638e-07C32.7846 2.8638e-07 35.3329 1.91354 36.2771 4.58333H38.9583C39.5661 4.58333 40.149 4.82478 40.5788 5.25455C41.0086 5.68432 41.25 6.26721 41.25 6.875C41.25 7.48279 41.0086 8.06568 40.5788 8.49545C40.149 8.92522 39.5661 9.16667 38.9583 9.16667H36.2771C35.8036 10.5085 34.9256 11.6705 33.764 12.4924C32.6025 13.3143 31.2146 13.7556 29.7917 13.7556C28.3687 13.7556 26.9808 13.3143 25.8193 12.4924C24.6577 11.6705 23.7797 10.5085 23.3063 9.16667H2.29167C1.68388 9.16667 1.10098 8.92522 0.671214 8.49545C0.241443 8.06568 0 7.48279 0 6.875C0 6.26721 0.241443 5.68432 0.671214 5.25455C1.10098 4.82478 1.68388 4.58333 2.29167 4.58333H23.3063C23.7806 3.24254 24.6591 2.0818 25.8205 1.26097C26.982 0.440135 28.3694 -0.000410044 29.7917 2.8638e-07ZM29.7917 4.58333C29.1839 4.58333 28.601 4.82478 28.1712 5.25455C27.7414 5.68432 27.5 6.26721 27.5 6.875C27.5 7.48279 27.7414 8.06568 28.1712 8.49545C28.601 8.92522 29.1839 9.16667 29.7917 9.16667C30.3995 9.16667 30.9824 8.92522 31.4121 8.49545C31.8419 8.06568 32.0833 7.48279 32.0833 6.875C32.0833 6.26721 31.8419 5.68432 31.4121 5.25455C30.9824 4.82478 30.3995 4.58333 29.7917 4.58333Z" fill="black"/>
</svg>
