<svg width="40" height="40" viewBox="0 0 40 40" fill="none" xmlns="http://www.w3.org/2000/svg">
<path d="M40 20C40 31.0457 31.0457 40 20 40C8.95431 40 0 31.0457 0 20C0 8.95431 8.95431 0 20 0C31.0457 0 40 8.95431 40 20Z" fill="#FF0101"/>
<path d="M29.1374 18.6562L27.3864 20.375C27.1571 20.6042 26.8707 20.7242 26.5272 20.735C26.1837 20.7458 25.8865 20.6258 25.6355 20.375C25.4062 20.1458 25.2916 19.8542 25.2916 19.5C25.2916 19.1458 25.4062 18.8542 25.6355 18.625L27.3552 16.875L25.6355 15.1562C25.4062 14.9271 25.2916 14.6408 25.2916 14.2975C25.2916 13.9542 25.4062 13.6571 25.6355 13.4062C25.8856 13.1562 26.1829 13.0312 26.5272 13.0312C26.8716 13.0312 27.1684 13.1562 27.4177 13.4062L29.1374 15.125L30.857 13.375C31.0863 13.125 31.3727 13 31.7162 13C32.0598 13 32.357 13.125 32.608 13.375C32.8581 13.625 32.9832 13.9221 32.9832 14.2662C32.9832 14.6104 32.8581 14.9071 32.608 15.1562L30.8883 16.875L32.6392 18.625C32.8894 18.875 33.0094 19.1667 32.9994 19.5C32.9894 19.8333 32.8589 20.125 32.608 20.375C32.3578 20.6042 32.066 20.7242 31.7325 20.735C31.399 20.7458 31.1072 20.6258 30.857 20.375L29.1374 18.6562ZM16.0053 20C14.6296 20 13.4519 19.5104 12.4722 18.5312C11.4925 17.5521 11.0027 16.375 11.0027 15C11.0027 13.625 11.4925 12.4479 12.4722 11.4688C13.4519 10.4896 14.6296 10 16.0053 10C17.3811 10 18.5588 10.4896 19.5385 11.4688C20.5182 12.4479 21.008 13.625 21.008 15C21.008 16.375 20.5182 17.5521 19.5385 18.5312C18.5588 19.5104 17.3811 20 16.0053 20ZM6 27.5V26.5C6 25.7917 6.1826 25.1408 6.54779 24.5475C6.91299 23.9542 7.39741 23.5008 8.00107 23.1875C9.29343 22.5417 10.6066 22.0575 11.9407 21.735C13.2747 21.4125 14.6296 21.2508 16.0053 21.25C17.3811 21.25 18.736 21.4117 20.07 21.735C21.4041 22.0583 22.7173 22.5425 24.0096 23.1875C24.6141 23.5 25.099 23.9533 25.4641 24.5475C25.8293 25.1417 26.0115 25.7925 26.0107 26.5V27.5C26.0107 28.1875 25.766 28.7762 25.2765 29.2662C24.7871 29.7562 24.1981 30.0008 23.5094 30H8.50134C7.81347 30 7.22482 29.7554 6.73539 29.2662C6.24596 28.7771 6.00083 28.1883 6 27.5Z" fill="white"/>
</svg>
