<svg width="68" height="68" viewBox="0 0 68 68" fill="none" xmlns="http://www.w3.org/2000/svg">
<g filter="url(#filter0_d_672_6895)">
<path d="M64 30C64 46.5685 50.5685 60 34 60C17.4315 60 4 46.5685 4 30C4 13.4315 17.4315 0 34 0C50.5685 0 64 13.4315 64 30Z" fill="#FFB600"/>
</g>
<circle cx="34" cy="30" r="18" fill="#FF4800"/>
<path d="M42.5455 38V35H39.2727V33H42.5455V30H44.7273V33H48V35H44.7273V38H42.5455ZM26.1818 39C25.5818 39 25.0682 38.8042 24.6409 38.4125C24.2136 38.0208 24 37.55 24 37V23C24 22.45 24.2136 21.9792 24.6409 21.5875C25.0682 21.1958 25.5818 21 26.1818 21H41.4545C42.0545 21 42.5682 21.1958 42.9955 21.5875C43.4227 21.9792 43.6364 22.45 43.6364 23V28H41.4545V26H26.1818V37H40.3636V39H26.1818ZM26.1818 24H41.4545V23H26.1818V24Z" fill="white"/>
<defs>
<filter id="filter0_d_672_6895" x="0" y="0" width="68" height="68" filterUnits="userSpaceOnUse" color-interpolation-filters="sRGB">
<feFlood flood-opacity="0" result="BackgroundImageFix"/>
<feColorMatrix in="SourceAlpha" type="matrix" values="0 0 0 0 0 0 0 0 0 0 0 0 0 0 0 0 0 0 127 0" result="hardAlpha"/>
<feOffset dy="4"/>
<feGaussianBlur stdDeviation="2"/>
<feComposite in2="hardAlpha" operator="out"/>
<feColorMatrix type="matrix" values="0 0 0 0 0 0 0 0 0 0 0 0 0 0 0 0 0 0 0.25 0"/>
<feBlend mode="normal" in2="BackgroundImageFix" result="effect1_dropShadow_672_6895"/>
<feBlend mode="normal" in="SourceGraphic" in2="effect1_dropShadow_672_6895" result="shape"/>
</filter>
</defs>
</svg>
