<svg width="24" height="24" viewBox="0 0 24 24" fill="none" xmlns="http://www.w3.org/2000/svg">
<path d="M16.775 3.89607L20.5333 8.12502C20.6917 8.30318 20.6917 8.59387 20.5333 8.77203L11.4333 19.0115L7.56667 19.4944C7.05 19.5601 6.6125 19.0678 6.67083 18.4864L7.1 14.1356L16.2 3.89607C16.3583 3.71791 16.6167 3.71791 16.775 3.89607ZM23.525 2.82243L21.4917 0.534479C20.8583 -0.17816 19.8292 -0.17816 19.1917 0.534479L17.7167 2.19418C17.5583 2.37234 17.5583 2.66302 17.7167 2.84118L21.475 7.07013C21.6333 7.24829 21.8917 7.24829 22.05 7.07013L23.525 5.41043C24.1583 4.6931 24.1583 3.53507 23.525 2.82243ZM16 16.2266V20.9994H2.66667V5.99648H12.2417C12.375 5.99648 12.5 5.93553 12.5958 5.83239L14.2625 3.95702C14.5792 3.6007 14.3542 2.9959 13.9083 2.9959H2C0.895833 2.9959 0 4.00391 0 5.24634V21.7496C0 22.992 0.895833 24 2 24H16.6667C17.7708 24 18.6667 22.992 18.6667 21.7496V14.3512C18.6667 13.8496 18.1292 13.6011 17.8125 13.9527L16.1458 15.8281C16.0542 15.9359 16 16.0766 16 16.2266Z" fill="black"/>
</svg>
