<svg width="24" height="24" viewBox="0 0 24 24" fill="none" xmlns="http://www.w3.org/2000/svg">
<path d="M6.53978 21.8933C6.50504 21.8933 6.45873 21.9164 6.424 21.9164C4.17791 20.805 2.34863 18.9641 1.22559 16.718C1.22559 16.6833 1.24874 16.637 1.24874 16.6022C2.66123 17.019 4.12002 17.3316 5.56724 17.5748C5.82195 19.0336 6.12298 20.4808 6.53978 21.8933Z" fill="black"/>
<path d="M21.9271 16.7296C20.7809 19.0336 18.8706 20.8976 16.5435 22.0206C16.9834 20.5502 17.3539 19.0683 17.597 17.5748C19.0558 17.3316 20.4915 17.019 21.904 16.6022C21.8924 16.6485 21.9271 16.6949 21.9271 16.7296Z" fill="black"/>
<path d="M22.0197 6.61141C20.5609 6.17146 19.0906 5.81254 17.597 5.55783C17.3539 4.0643 16.995 2.58235 16.5435 1.13513C18.9401 2.28133 20.8735 4.21482 22.0197 6.61141Z" fill="black"/>
<path d="M6.54207 1.26032C6.12527 2.67281 5.82424 4.10845 5.58111 5.56724C4.08758 5.7988 2.60563 6.16929 1.13525 6.60924C2.2583 4.28211 4.12231 2.37178 6.42629 1.22559C6.46102 1.22559 6.50733 1.26032 6.54207 1.26032Z" fill="black"/>
<path d="M15.6203 5.31419C12.9343 5.01317 10.2251 5.01317 7.53906 5.31419C7.82851 3.72804 8.199 2.14188 8.71999 0.613621C8.74315 0.520999 8.73157 0.451532 8.74315 0.35891C9.65777 0.138933 10.5956 0 11.5797 0C12.5522 0 13.5016 0.138933 14.4046 0.35891C14.4162 0.451532 14.4162 0.520999 14.4394 0.613621C14.9604 2.15346 15.3309 3.72804 15.6203 5.31419Z" fill="black"/>
<path d="M5.31419 15.6204C3.71646 15.3309 2.14188 14.9604 0.613621 14.4394C0.520999 14.4163 0.451532 14.4279 0.35891 14.4163C0.138933 13.5016 0 12.5638 0 11.5797C0 10.6072 0.138933 9.65783 0.35891 8.75479C0.451532 8.74321 0.520999 8.74321 0.613621 8.72006C2.15346 8.21063 3.71646 7.82857 5.31419 7.53912C5.02475 10.2251 5.02475 12.9343 5.31419 15.6204Z" fill="black"/>
<path d="M23.1555 11.5797C23.1555 12.5638 23.0166 13.5016 22.7966 14.4163C22.704 14.4279 22.6345 14.4163 22.5419 14.4394C21.002 14.9489 19.4275 15.3309 17.8413 15.6204C18.1423 12.9343 18.1423 10.2251 17.8413 7.53912C19.4275 7.82857 21.0136 8.19906 22.5419 8.72006C22.6345 8.74321 22.704 8.75479 22.7966 8.75479C23.0166 9.66941 23.1555 10.6072 23.1555 11.5797Z" fill="black"/>
<path d="M15.6203 17.8416C15.3309 19.4393 14.9604 21.0139 14.4394 22.5421C14.4162 22.6347 14.4162 22.7042 14.4046 22.7968C13.5016 23.0168 12.5522 23.1557 11.5797 23.1557C10.5956 23.1557 9.65777 23.0168 8.74315 22.7968C8.73157 22.7042 8.74315 22.6347 8.71999 22.5421C8.21057 21.0023 7.82851 19.4393 7.53906 17.8416C8.88208 17.9921 10.2251 18.0963 11.5797 18.0963C12.9343 18.0963 14.2889 17.9921 15.6203 17.8416Z" fill="black"/>
<path d="M15.9349 15.9348C13.0392 16.3002 10.1165 16.3002 7.22079 15.9348C6.85544 13.0391 6.85544 10.1164 7.22079 7.22067C10.1165 6.85532 13.0392 6.85532 15.9349 7.22067C16.3003 10.1164 16.3003 13.0391 15.9349 15.9348Z" fill="black"/>
</svg>
