<svg width="38" height="38" viewBox="0 0 38 38" fill="none" xmlns="http://www.w3.org/2000/svg">
<g clip-path="url(#clip0_1540_14797)">
<path d="M37.6828 8.09764C37.5165 7.42745 36.6779 7.20034 36.1895 7.6887L30.6706 13.2076L25.6326 12.3682L24.7932 7.33022L30.3121 1.81132C30.8034 1.31999 30.5667 0.4828 29.892 0.315066C26.3756 -0.556262 22.5036 0.382605 19.7552 3.13018C16.8132 6.07221 16.0035 10.3368 17.2281 14.0552L1.39056 29.8927C-0.46417 31.7475 -0.46417 34.7548 1.39056 36.6095C3.24528 38.4642 6.25263 38.4642 8.10735 36.6095L23.9315 20.7853C27.6514 22.0255 31.9078 21.2069 34.8692 18.2456C37.6204 15.4943 38.5578 11.6164 37.6828 8.09764ZM4.7497 35.0316C3.7663 35.0316 2.96845 34.2338 2.96845 33.2504C2.96845 32.2662 3.7663 31.4691 4.7497 31.4691C5.7331 31.4691 6.53095 32.2662 6.53095 33.2504C6.53095 34.2338 5.7331 35.0316 4.7497 35.0316Z" fill="black"/>
</g>
<defs>
<clipPath id="clip0_1540_14797">
<rect width="38" height="38" fill="white"/>
</clipPath>
</defs>
</svg>
