<svg width="32" height="19" viewBox="0 0 32 19" fill="none" xmlns="http://www.w3.org/2000/svg">
<path d="M25.3814 15.7895V18.4211H9.49908V15.7895C9.49908 15.7895 9.49908 10.5263 17.4403 10.5263C25.3814 10.5263 25.3814 15.7895 25.3814 15.7895ZM21.4108 3.94737C21.4108 3.16665 21.178 2.40347 20.7417 1.75433C20.3054 1.10519 19.6853 0.599244 18.9597 0.300477C18.2342 0.00171034 17.4359 -0.0764607 16.6656 0.0758494C15.8954 0.228159 15.1879 0.60411 14.6326 1.15616C14.0773 1.70821 13.6992 2.41156 13.546 3.17728C13.3928 3.94299 13.4714 4.73667 13.7719 5.45796C14.0724 6.17925 14.5814 6.79574 15.2343 7.22949C15.8873 7.66323 16.6549 7.89474 17.4403 7.89474C18.4933 7.89474 19.5033 7.47886 20.2479 6.73858C20.9925 5.99831 21.4108 4.99428 21.4108 3.94737ZM25.6461 10.6053C26.3696 11.2688 26.9529 12.069 27.3619 12.9591C27.771 13.8492 27.9976 14.8114 28.0285 15.7895V18.4211H31.9991V15.7895C31.9991 15.7895 31.9991 11.25 25.6461 10.6053ZM24.0579 1.50198e-06C23.658 0.000239414 23.2606 0.0623874 22.88 0.184212C23.6543 1.28812 24.0695 2.60156 24.0695 3.94737C24.0695 5.29318 23.6543 6.60662 22.88 7.71053C23.2606 7.83235 23.658 7.8945 24.0579 7.89474C25.111 7.89474 26.1209 7.47886 26.8655 6.73858C27.6102 5.99831 28.0285 4.99428 28.0285 3.94737C28.0285 2.90046 27.6102 1.89643 26.8655 1.15616C26.1209 0.415884 25.111 1.50198e-06 24.0579 1.50198e-06ZM10.8226 6.57895H6.85202V2.63158H4.20496V6.57895H0.234375V9.21053H4.20496V13.1579H6.85202V9.21053H10.8226V6.57895Z" fill="black"/>
</svg>
