<svg width="15" height="16" viewBox="0 0 15 16" fill="none" xmlns="http://www.w3.org/2000/svg">
<path d="M14.9552 14.6843L12.6926 12.4217C11.2024 10.9315 11.2502 8.49489 11.2502 6.38743C11.2502 4.88368 10.6633 3.47369 9.60208 2.41057C8.54083 1.34745 7.12709 0.762451 5.62522 0.762451C4.12335 0.762451 2.70961 1.34932 1.64836 2.41057C0.585241 3.47181 0.000244141 4.88368 0.000244141 6.38743C0.000244141 7.88929 0.587116 9.30304 1.64836 10.3643C2.70961 11.4274 4.12148 12.0124 5.62522 12.0124C7.73192 12.0124 10.1663 11.9649 11.6562 13.4543L13.9202 15.7174C13.9345 15.7317 13.9514 15.743 13.9701 15.7507C13.9887 15.7585 14.0087 15.7625 14.0289 15.7625C14.0491 15.7625 14.0691 15.7585 14.0878 15.7507C14.1065 15.743 14.1234 15.7317 14.1377 15.7174L14.9552 14.9018C14.9695 14.8875 14.9808 14.8705 14.9885 14.8519C14.9963 14.8332 15.0002 14.8132 15.0002 14.793C15.0002 14.7728 14.9963 14.7528 14.9885 14.7342C14.9808 14.7155 14.9695 14.6985 14.9552 14.6843ZM8.59521 9.35741C7.80021 10.1505 6.74646 10.5874 5.62522 10.5874C4.50397 10.5874 3.45023 10.1505 2.65523 9.35741C1.86211 8.56242 1.42524 7.50867 1.42524 6.38743C1.42524 5.26618 1.86211 4.21056 2.65523 3.41744C3.45023 2.62432 4.50397 2.18745 5.62522 2.18745C6.74646 2.18745 7.80208 2.62244 8.59521 3.41744C9.38833 4.21244 9.8252 5.26618 9.8252 6.38743C9.8252 7.50867 9.38833 8.56429 8.59521 9.35741Z" fill="#FF8500"/>
</svg>
