<svg width="29" height="31" viewBox="0 0 29 31" fill="none" xmlns="http://www.w3.org/2000/svg">
<g filter="url(#filter0_d_576_5575)">
<path fill-rule="evenodd" clip-rule="evenodd" d="M16.6217 0.2204C16.0764 -6.32391e-08 15.3838 0 14.0001 0C12.6163 0 11.9237 -6.32391e-08 11.3785 0.2204C10.6526 0.513606 10.0749 1.07846 9.7722 1.79075C9.63368 2.1141 9.58063 2.49255 9.55852 3.0421C9.54869 3.44027 9.43581 3.8294 9.23056 4.17269C9.0253 4.51598 8.73445 4.80209 8.3855 5.00395C8.02997 5.1984 7.63032 5.30141 7.22357 5.30344C6.81682 5.30547 6.41612 5.20645 6.05862 5.01555C5.56052 4.75745 5.19948 4.61535 4.84286 4.56895C4.06264 4.46815 3.27354 4.67451 2.64713 5.14315C2.17851 5.49405 1.8322 6.07985 1.14107 7.25C0.448453 8.42015 0.10362 9.0045 0.0255169 9.57725C-0.0776382 10.3399 0.134567 11.1114 0.614975 11.7218C0.833074 12.0002 1.14107 12.2337 1.61705 12.5266C2.31998 12.9572 2.77092 13.6909 2.77092 14.5C2.77092 15.3091 2.31998 16.0428 1.61853 16.472C1.14107 16.7663 0.833074 16.9998 0.613501 17.2782C0.376366 17.5797 0.202309 17.9245 0.101387 18.2926C0.000464037 18.6607 -0.0253227 19.0448 0.0255169 19.4227C0.10362 19.994 0.448453 20.5798 1.14107 21.75C1.83368 22.9201 2.17851 23.5045 2.64713 23.8568C3.27195 24.3252 4.06183 24.5311 4.84286 24.431C5.19948 24.3846 5.56052 24.2426 6.05862 23.9845C6.41631 23.7933 6.81727 23.6941 7.22431 23.6962C7.63135 23.6982 8.03127 23.8013 8.38697 23.996C9.10316 24.402 9.52757 25.1488 9.55852 25.9579C9.58063 26.5089 9.63368 26.8859 9.7722 27.2093C10.0728 27.9198 10.6505 28.4852 11.3785 28.7796C11.9237 29 12.6163 29 14.0001 29C15.3838 29 16.0764 29 16.6217 28.7796C17.3475 28.4864 17.9253 27.9215 18.228 27.2093C18.3665 26.8859 18.4195 26.5089 18.4416 25.9579C18.4711 25.1488 18.897 24.4006 19.6147 23.996C19.9702 23.8016 20.3698 23.6986 20.7766 23.6966C21.1834 23.6945 21.584 23.7936 21.9416 23.9845C22.4396 24.2426 22.8007 24.3846 23.1573 24.431C23.9383 24.5326 24.7282 24.3252 25.353 23.8568C25.8217 23.5059 26.168 22.9201 26.8591 21.75C27.5517 20.5798 27.8965 19.9955 27.9746 19.4227C28.0253 19.0447 27.9993 18.6605 27.8981 18.2924C27.7969 17.9243 27.6226 17.5796 27.3852 17.2782C27.1671 16.9998 26.8591 16.7663 26.3831 16.4734C25.6802 16.0428 25.2293 15.3091 25.2293 14.5C25.2293 13.6909 25.6802 12.9572 26.3816 12.528C26.8591 12.2337 27.1671 12.0002 27.3867 11.7218C27.6238 11.4203 27.7979 11.0755 27.8988 10.7074C27.9997 10.3393 28.0255 9.95521 27.9746 9.57725C27.8965 9.00595 27.5517 8.42015 26.8591 7.25C26.1665 6.07985 25.8217 5.4955 25.353 5.14315C24.7266 4.67451 23.9375 4.46815 23.1573 4.56895C22.8007 4.61535 22.4396 4.75745 21.9416 5.01555C21.5839 5.2067 21.1829 5.30586 20.7759 5.30384C20.3688 5.30181 19.9689 5.19866 19.6132 5.00395C19.2645 4.80191 18.974 4.51573 18.769 4.17245C18.564 3.82917 18.4513 3.44014 18.4416 3.0421C18.4195 2.4911 18.3665 2.1141 18.228 1.79075C18.0782 1.43802 17.8592 1.11778 17.5836 0.848334C17.308 0.578888 16.9811 0.365513 16.6217 0.2204ZM14.0001 18.85C16.4611 18.85 18.4549 16.9026 18.4549 14.5C18.4549 12.0974 16.4596 10.15 14.0001 10.15C11.5391 10.15 9.54526 12.0974 9.54526 14.5C9.54526 16.9026 11.5406 18.85 14.0001 18.85Z" fill="black"/>
<path d="M16.4345 0.684042L16.4343 0.683961C16.2317 0.602049 15.9818 0.55236 15.5922 0.526448C15.1983 0.500257 14.6986 0.5 14.0001 0.5C13.3015 0.5 12.8019 0.500257 12.408 0.526448C12.0184 0.55236 11.7685 0.602049 11.5659 0.683961L11.5657 0.684004C10.9612 0.928202 10.4825 1.39756 10.2324 1.98628L10.2318 1.98764C10.1309 2.22306 10.0799 2.52469 10.0583 3.05855C10.0456 3.54182 9.90828 4.01354 9.6597 4.42928L9.23056 4.17269L9.6597 4.42928C9.41044 4.84615 9.05781 5.19266 8.63587 5.43675L8.6255 5.44275L8.62543 5.44262C8.19679 5.67706 7.71549 5.80099 7.22606 5.80343C6.73772 5.80587 6.25625 5.68728 5.82598 5.45815C5.34406 5.20858 5.04623 5.09962 4.77835 5.06477C4.12648 4.98067 3.46813 5.15337 2.94665 5.54351C2.77393 5.67288 2.60619 5.85772 2.38948 6.17274C2.17 6.49179 1.92063 6.91331 1.57158 7.50428L1.57134 7.50468C1.22159 8.09558 0.972735 8.517 0.799782 8.86182C0.628918 9.20247 0.549497 9.4356 0.520966 9.64456C0.436252 10.2715 0.61029 10.9074 1.00789 11.4126L1.00858 11.4135C1.16961 11.619 1.41411 11.8146 1.87909 12.1007L1.61705 12.5266M16.4345 0.684042L23.2217 23.9352C22.9539 23.9004 22.6561 23.7914 22.1742 23.5419C21.7439 23.3127 21.2625 23.1941 20.7741 23.1966C20.2847 23.199 19.8034 23.3229 19.3747 23.5574L19.3747 23.5573L19.3691 23.5605C18.491 24.0555 17.9777 24.9669 17.942 25.9388C17.9204 26.4756 17.8694 26.7765 17.7684 27.0124L17.7678 27.0137C17.5176 27.6024 17.0389 28.0718 16.4344 28.316L16.4343 28.316C16.2317 28.398 15.9818 28.4476 15.5922 28.4736C15.1983 28.4997 14.6986 28.5 14.0001 28.5C13.3015 28.5 12.8019 28.4997 12.408 28.4736C12.0184 28.4476 11.7685 28.398 11.5659 28.3161C10.9589 28.0706 10.4807 27.6006 10.2327 27.0144L10.2318 27.0124C10.1307 26.7764 10.0797 26.4753 10.0581 25.9381C10.0208 24.9671 9.50954 24.0577 8.63355 23.5611L8.63358 23.561L8.62705 23.5575C8.19819 23.3227 7.71657 23.1986 7.2268 23.1962C6.73815 23.1937 6.25639 23.3125 5.82593 23.5419C5.34416 23.7914 5.04637 23.9003 4.77856 23.9352C4.12517 24.0187 3.46637 23.846 2.94717 23.4569C2.77409 23.3266 2.60655 23.1415 2.39007 22.8268C2.17062 22.5077 1.92124 22.0865 1.57134 21.4953C1.22167 20.9046 0.972777 20.4827 0.799827 20.1377C0.628961 19.7969 0.549523 19.5638 0.520979 19.3555C0.479194 19.0443 0.500448 18.728 0.583591 18.4248C0.666758 18.1214 0.810295 17.8369 1.00631 17.5876C1.16921 17.3811 1.41439 17.1853 1.8802 16.8981C2.71371 16.3877 3.27092 15.5009 3.27092 14.5C3.27092 13.4986 2.7132 12.6117 1.87826 12.1002L1.61705 12.5266M16.4345 0.684042C16.7338 0.804862 17.0054 0.982311 17.2341 1.20586C17.4627 1.4294 17.6439 1.69463 17.7677 1.98619L17.7684 1.98764C17.8692 2.22311 17.9202 2.52333 17.9419 3.05834C17.9543 3.54145 18.0914 4.01306 18.3397 4.4288C18.5886 4.84566 18.9409 5.19226 19.3625 5.43657L19.3624 5.4367M16.4345 0.684042L19.3624 5.4367M1.61705 12.5266C2.31998 12.9572 2.77092 13.6909 2.77092 14.5C2.77092 15.3091 2.31998 16.0428 1.61853 16.472L0.0255169 9.57725C-0.0776382 10.3399 0.134567 11.1114 0.614975 11.7218C0.833074 12.0002 1.14107 12.2337 1.61705 12.5266ZM25.0531 23.4568L25.0533 23.4566C25.2261 23.3272 25.3939 23.1424 25.6107 22.8273C25.8302 22.5082 26.0795 22.0867 26.4286 21.4957L26.4288 21.4953C26.7786 20.9044 27.0274 20.483 27.2004 20.1382C27.3711 19.7977 27.4506 19.5647 27.4791 19.3558C27.5208 19.0445 27.4993 18.7282 27.416 18.4249C27.3326 18.1215 27.1887 17.8368 26.9924 17.5876L26.9916 17.5866C26.8306 17.381 26.5861 17.1854 26.1211 16.8993L25.0531 23.4568ZM25.0531 23.4568C24.5332 23.8465 23.8742 24.02 23.2218 23.9352L25.0531 23.4568ZM19.3624 5.4367L19.3731 5.44254M19.3624 5.4367L19.3731 5.44254M19.3731 5.44254C19.802 5.67729 20.2836 5.80139 20.7734 5.80383C21.262 5.80626 21.7438 5.68752 22.1742 5.45812M19.3731 5.44254L22.1742 5.45812M22.1742 5.45812C22.6561 5.2086 22.9539 5.09964 23.2218 5.06478L22.1742 5.45812ZM14.0001 19.35C16.726 19.35 18.9549 17.1899 18.9549 14.5C18.9549 11.81 16.7244 9.65 14.0001 9.65C11.2742 9.65 9.04526 11.8101 9.04526 14.5C9.04526 17.19 11.2758 19.35 14.0001 19.35Z" stroke="black"/>
</g>
<defs>
<filter id="filter0_d_576_5575" x="0" y="0" width="29" height="31" filterUnits="userSpaceOnUse" color-interpolation-filters="sRGB">
<feFlood flood-opacity="0" result="BackgroundImageFix"/>
<feColorMatrix in="SourceAlpha" type="matrix" values="0 0 0 0 0 0 0 0 0 0 0 0 0 0 0 0 0 0 127 0" result="hardAlpha"/>
<feOffset dx="1" dy="2"/>
<feComposite in2="hardAlpha" operator="out"/>
<feColorMatrix type="matrix" values="0 0 0 0 0 0 0 0 0 0 0 0 0 0 0 0 0 0 0.25 0"/>
<feBlend mode="normal" in2="BackgroundImageFix" result="effect1_dropShadow_576_5575"/>
<feBlend mode="normal" in="SourceGraphic" in2="effect1_dropShadow_576_5575" result="shape"/>
</filter>
</defs>
</svg>
