<svg width="27" height="25" viewBox="0 0 27 25" fill="none" xmlns="http://www.w3.org/2000/svg">
<ellipse cx="13.1098" cy="12.5" rx="13.1098" ry="12.5" fill="#FFB600"/>
<path d="M13.1098 0C5.86825 0 0 5.59687 0 12.5C0 19.4031 5.86825 25 13.1098 25C20.3513 25 26.2195 19.4031 26.2195 12.5C26.2195 5.59687 20.3513 0 13.1098 0ZM19.1845 16.0828C19.4918 16.3758 19.6644 16.7732 19.6644 17.1875C19.6644 17.6018 19.4918 17.9992 19.1845 18.2922C18.8772 18.5852 18.4605 18.7498 18.0259 18.7498C17.5914 18.7498 17.1746 18.5852 16.8673 18.2922L13.1098 14.7094L9.35217 18.2922C9.20034 18.4378 9.01982 18.5533 8.82099 18.6322C8.62216 18.711 8.40894 18.7516 8.1936 18.7516C7.97826 18.7516 7.76504 18.711 7.56621 18.6322C7.36738 18.5533 7.18686 18.4378 7.03502 18.2922C6.88271 18.1472 6.76188 17.975 6.67943 17.7855C6.59699 17.5959 6.55455 17.3927 6.55455 17.1875C6.55455 16.9823 6.59699 16.7791 6.67943 16.5895C6.76188 16.4 6.88271 16.2278 7.03502 16.0828L10.7926 12.5L7.03502 8.91719C6.72775 8.62421 6.55513 8.22684 6.55513 7.8125C6.55513 7.39816 6.72775 7.00079 7.03502 6.70781C7.3423 6.41483 7.75905 6.25024 8.1936 6.25024C8.62815 6.25024 9.0449 6.41483 9.35217 6.70781L13.1098 10.2906L16.8673 6.70781C17.1746 6.41483 17.5914 6.25024 18.0259 6.25024C18.4605 6.25024 18.8772 6.41483 19.1845 6.70781C19.4918 7.00079 19.6644 7.39816 19.6644 7.8125C19.6644 8.22684 19.4918 8.62421 19.1845 8.91719L15.4269 12.5L19.1845 16.0828Z" fill="#D9D9D9"/>
</svg>
