<svg width="60" height="45" viewBox="0 0 60 45" fill="none" xmlns="http://www.w3.org/2000/svg">
<path d="M22 26C23.6569 26 25 24.6569 25 23C25 21.3431 23.6569 20 22 20C20.3431 20 19 21.3431 19 23C19 24.6569 20.3431 26 22 26Z" fill="#949494"/>
<path d="M24.75 23C24.75 24.5188 23.5188 25.75 22 25.75C20.4812 25.75 19.25 24.5188 19.25 23C19.25 21.4812 20.4812 20.25 22 20.25C23.5188 20.25 24.75 21.4812 24.75 23Z" stroke="black" stroke-opacity="0.25" stroke-width="0.5"/>
<path d="M30 26C31.6569 26 33 24.6569 33 23C33 21.3431 31.6569 20 30 20C28.3431 20 27 21.3431 27 23C27 24.6569 28.3431 26 30 26Z" fill="#949494"/>
<path d="M32.75 23C32.75 24.5188 31.5188 25.75 30 25.75C28.4812 25.75 27.25 24.5188 27.25 23C27.25 21.4812 28.4812 20.25 30 20.25C31.5188 20.25 32.75 21.4812 32.75 23Z" stroke="black" stroke-opacity="0.25" stroke-width="0.5"/>
<path d="M38 26C39.6569 26 41 24.6569 41 23C41 21.3431 39.6569 20 38 20C36.3431 20 35 21.3431 35 23C35 24.6569 36.3431 26 38 26Z" fill="#949494"/>
<path d="M40.75 23C40.75 24.5188 39.5188 25.75 38 25.75C36.4812 25.75 35.25 24.5188 35.25 23C35.25 21.4812 36.4812 20.25 38 20.25C39.5188 20.25 40.75 21.4812 40.75 23Z" stroke="black" stroke-opacity="0.25" stroke-width="0.5"/>
</svg>
