<svg width="40" height="12" viewBox="0 0 40 12" fill="none" xmlns="http://www.w3.org/2000/svg">
<path d="M6 12C9.31371 12 12 9.31371 12 6C12 2.68629 9.31371 0 6 0C2.68629 0 0 2.68629 0 6C0 9.31371 2.68629 12 6 12Z" fill="#949494"/>
<path d="M11.75 6C11.75 9.17564 9.17564 11.75 6 11.75C2.82436 11.75 0.25 9.17564 0.25 6C0.25 2.82436 2.82436 0.25 6 0.25C9.17564 0.25 11.75 2.82436 11.75 6Z" stroke="black" stroke-opacity="0.25" stroke-width="0.5"/>
<path d="M20 12C23.3137 12 26 9.31371 26 6C26 2.68629 23.3137 0 20 0C16.6863 0 14 2.68629 14 6C14 9.31371 16.6863 12 20 12Z" fill="#949494"/>
<path d="M25.75 6C25.75 9.17564 23.1756 11.75 20 11.75C16.8244 11.75 14.25 9.17564 14.25 6C14.25 2.82436 16.8244 0.25 20 0.25C23.1756 0.25 25.75 2.82436 25.75 6Z" stroke="black" stroke-opacity="0.25" stroke-width="0.5"/>
<path d="M34 12C37.3137 12 40 9.31371 40 6C40 2.68629 37.3137 0 34 0C30.6863 0 28 2.68629 28 6C28 9.31371 30.6863 12 34 12Z" fill="#949494"/>
<path d="M39.75 6C39.75 9.17564 37.1756 11.75 34 11.75C30.8244 11.75 28.25 9.17564 28.25 6C28.25 2.82436 30.8244 0.25 34 0.25C37.1756 0.25 39.75 2.82436 39.75 6Z" stroke="black" stroke-opacity="0.25" stroke-width="0.5"/>
</svg>
