<svg width="68" height="68" viewBox="0 0 68 68" fill="none" xmlns="http://www.w3.org/2000/svg">
<g filter="url(#filter0_d_672_6899)">
<path d="M64 30C64 46.5685 50.5685 60 34 60C17.4315 60 4 46.5685 4 30C4 13.4315 17.4315 0 34 0C50.5685 0 64 13.4315 64 30Z" fill="#FFB600"/>
</g>
<circle cx="34" cy="30" r="18" fill="#FF4800"/>
<path d="M28.5 34C29.2833 34 30.0458 34.0875 30.7875 34.2625C31.5292 34.4375 32.2667 34.7 33 35.05V25.2C32.3167 24.8 31.5917 24.5 30.825 24.3C30.0583 24.1 29.2833 24 28.5 24C27.9 24 27.3042 24.0583 26.7125 24.175C26.1208 24.2917 25.55 24.4667 25 24.7V34.6C25.5833 34.4 26.1625 34.25 26.7375 34.15C27.3125 34.05 27.9 34 28.5 34ZM35 35.05C35.7333 34.7 36.4708 34.4375 37.2125 34.2625C37.9542 34.0875 38.7167 34 39.5 34C40.1 34 40.6875 34.05 41.2625 34.15C41.8375 34.25 42.4167 34.4 43 34.6V24.7C42.45 24.4667 41.8792 24.2917 41.2875 24.175C40.6958 24.0583 40.1 24 39.5 24C38.7167 24 37.9417 24.1 37.175 24.3C36.4083 24.5 35.6833 24.8 35 25.2V35.05ZM34 38C33.2 37.3667 32.3333 36.875 31.4 36.525C30.4667 36.175 29.5 36 28.5 36C27.8 36 27.1125 36.0917 26.4375 36.275C25.7625 36.4583 25.1167 36.7167 24.5 37.05C24.15 37.2333 23.8125 37.225 23.4875 37.025C23.1625 36.825 23 36.5333 23 36.15V24.1C23 23.9167 23.0458 23.7417 23.1375 23.575C23.2292 23.4083 23.3667 23.2833 23.55 23.2C24.3167 22.8 25.1167 22.5 25.95 22.3C26.7833 22.1 27.6333 22 28.5 22C29.4667 22 30.4125 22.125 31.3375 22.375C32.2625 22.625 33.15 23 34 23.5C34.85 23 35.7375 22.625 36.6625 22.375C37.5875 22.125 38.5333 22 39.5 22C40.3667 22 41.2167 22.1 42.05 22.3C42.8833 22.5 43.6833 22.8 44.45 23.2C44.6333 23.2833 44.7708 23.4083 44.8625 23.575C44.9542 23.7417 45 23.9167 45 24.1V36.15C45 36.5333 44.8375 36.825 44.5125 37.025C44.1875 37.225 43.85 37.2333 43.5 37.05C42.8833 36.7167 42.2375 36.4583 41.5625 36.275C40.8875 36.0917 40.2 36 39.5 36C38.5 36 37.5333 36.175 36.6 36.525C35.6667 36.875 34.8 37.3667 34 38Z" fill="white" stroke="white"/>
<defs>
<filter id="filter0_d_672_6899" x="0" y="0" width="68" height="68" filterUnits="userSpaceOnUse" color-interpolation-filters="sRGB">
<feFlood flood-opacity="0" result="BackgroundImageFix"/>
<feColorMatrix in="SourceAlpha" type="matrix" values="0 0 0 0 0 0 0 0 0 0 0 0 0 0 0 0 0 0 127 0" result="hardAlpha"/>
<feOffset dy="4"/>
<feGaussianBlur stdDeviation="2"/>
<feComposite in2="hardAlpha" operator="out"/>
<feColorMatrix type="matrix" values="0 0 0 0 0 0 0 0 0 0 0 0 0 0 0 0 0 0 0.25 0"/>
<feBlend mode="normal" in2="BackgroundImageFix" result="effect1_dropShadow_672_6899"/>
<feBlend mode="normal" in="SourceGraphic" in2="effect1_dropShadow_672_6899" result="shape"/>
</filter>
</defs>
</svg>
