<svg width="46" height="37" viewBox="0 0 46 37" fill="none" xmlns="http://www.w3.org/2000/svg">
<path id="upload-icon" d="M4.58333 36.784C3.32292 36.784 2.24431 36.3419 1.3475 35.4578C0.450695 34.5736 0.00152778 33.5094 0 32.2652V5.15257C0 3.9099 0.449167 2.84648 1.3475 1.96231C2.24583 1.07814 3.32444 0.635295 4.58333 0.633789H16.4427C17.0538 0.633789 17.6367 0.746759 18.1912 0.972698C18.7458 1.19864 19.2324 1.51872 19.651 1.93294L22.9167 5.15257H41.25C42.5104 5.15257 43.5898 5.59541 44.4881 6.48109C45.3865 7.36677 45.8349 8.43019 45.8333 9.67135V32.2652C45.8333 33.5079 45.3849 34.5721 44.4881 35.4578C43.5913 36.3434 42.5119 36.7855 41.25 36.784H4.58333ZM22.9167 30.0059C23.566 30.0059 24.1106 29.789 24.5506 29.3552C24.9906 28.9213 25.2099 28.3851 25.2083 27.7465V20.5164L27.2708 22.5499C27.691 22.9641 28.2257 23.1712 28.875 23.1712C29.5243 23.1712 30.059 22.9641 30.4792 22.5499C30.8993 22.1356 31.1094 21.6085 31.1094 20.9683C31.1094 20.3281 30.8993 19.8009 30.4792 19.3867L24.5208 13.5123C24.0625 13.0604 23.5278 12.8345 22.9167 12.8345C22.3056 12.8345 21.7708 13.0604 21.3125 13.5123L15.3542 19.3867C14.934 19.8009 14.724 20.3281 14.724 20.9683C14.724 21.6085 14.934 22.1356 15.3542 22.5499C15.7743 22.9641 16.309 23.1712 16.9583 23.1712C17.6076 23.1712 18.1424 22.9641 18.5625 22.5499L20.625 20.5164V27.7465C20.625 28.3866 20.845 28.9236 21.285 29.3574C21.725 29.7912 22.2689 30.0074 22.9167 30.0059Z" fill="black"/>
</svg>
