<svg width="36" height="36" viewBox="0 0 36 36" fill="none" xmlns="http://www.w3.org/2000/svg">
<path d="M18 0.857178C18.593 0.857178 19.1617 1.09276 19.5811 1.51209C20.0004 1.93143 20.236 2.50017 20.236 3.0932V15.764H32.9068C33.4998 15.764 34.0686 15.9996 34.4879 16.4189C34.9072 16.8383 35.1428 17.407 35.1428 18C35.1428 18.5931 34.9072 19.1618 34.4879 19.5811C34.0686 20.0005 33.4998 20.2361 32.9068 20.2361H20.236V32.9069C20.236 33.4999 20.0004 34.0686 19.5811 34.488C19.1617 34.9073 18.593 35.1429 18 35.1429C17.4069 35.1429 16.8382 34.9073 16.4189 34.488C15.9995 34.0686 15.7639 33.4999 15.7639 32.9069V20.2361H3.09314C2.50011 20.2361 1.93137 20.0005 1.51203 19.5811C1.0927 19.1618 0.857117 18.5931 0.857117 18C0.857117 17.407 1.0927 16.8383 1.51203 16.4189C1.93137 15.9996 2.50011 15.764 3.09314 15.764H15.7639V3.0932C15.7639 2.50017 15.9995 1.93143 16.4189 1.51209C16.8382 1.09276 17.4069 0.857178 18 0.857178Z" fill="white"/>
</svg>
