<svg width="22" height="22" viewBox="0 0 22 22" fill="none" xmlns="http://www.w3.org/2000/svg">
<path d="M20.75 5.75C20.7501 6.37335 20.6206 6.98991 20.3699 7.5606C20.1191 8.13129 19.7525 8.64367 19.2934 9.06524C18.8342 9.48681 18.2924 9.80838 17.7024 10.0096C17.1125 10.2108 16.4871 10.2872 15.866 10.234C14.79 10.143 13.602 10.305 12.916 11.138L5.76402 19.822C5.53841 20.097 5.25772 20.3217 4.94002 20.4817C4.62231 20.6417 4.27463 20.7334 3.91935 20.7508C3.56407 20.7683 3.20907 20.7112 2.87719 20.5832C2.54531 20.4552 2.24391 20.2592 1.99239 20.0076C1.74086 19.7561 1.54479 19.4547 1.41679 19.1228C1.28878 18.7909 1.23169 18.4359 1.24917 18.0807C1.26666 17.7254 1.35834 17.3777 1.51832 17.06C1.67829 16.7423 1.90301 16.4616 2.17802 16.236L10.862 9.085C11.695 8.398 11.857 7.21 11.766 6.135C11.6989 5.35317 11.8374 4.56737 12.1677 3.85559C12.4981 3.14381 13.0088 2.53078 13.6492 2.07734C14.2896 1.62391 15.0375 1.34582 15.8186 1.27068C16.5997 1.19554 17.3869 1.32596 18.102 1.649L14.826 4.924C14.9528 5.47209 15.2309 5.97358 15.6286 6.37137C16.0264 6.76916 16.5279 7.04726 17.076 7.174L20.352 3.898C20.608 4.463 20.75 5.09 20.75 5.75Z" stroke="black" stroke-width="1.5" stroke-linecap="round" stroke-linejoin="round"/>
<path d="M3.86694 18.125H3.87494V18.133H3.86694V18.125Z" stroke="black" stroke-width="1.5" stroke-linecap="round" stroke-linejoin="round"/>
</svg>
