<svg width="100" height="141" viewBox="0 0 100 141" fill="none" xmlns="http://www.w3.org/2000/svg">
<rect x="0.5" y="0.5" width="99" height="140" fill="white" stroke="black"/>
<path d="M12.432 20V14.16C12.432 13.4667 12.272 12.976 11.952 12.688C11.6427 12.3893 11.12 12.24 10.384 12.24C9.85067 12.24 9.33867 12.3147 8.848 12.464C8.368 12.6027 7.90933 12.8 7.472 13.056V11.728C7.78133 11.568 8.19733 11.4187 8.72 11.28C9.25333 11.1413 9.85067 11.072 10.512 11.072C11.0773 11.072 11.5573 11.136 11.952 11.264C12.3573 11.392 12.656 11.6267 12.848 11.968C13.2213 12.1387 13.4773 12.4053 13.616 12.768C13.7653 13.1307 13.84 13.568 13.84 14.08V20H12.432ZM9.68 20.16C8.74133 20.16 8.02133 19.9467 7.52 19.52C7.02933 19.0827 6.784 18.4587 6.784 17.648C6.784 16.7627 7.104 16.08 7.744 15.6C8.39467 15.12 9.44533 14.8373 10.896 14.752L12.72 14.64V15.824L11.088 15.936C10 16.0107 9.248 16.1813 8.832 16.448C8.42667 16.7147 8.224 17.104 8.224 17.616C8.224 18.096 8.37333 18.448 8.672 18.672C8.98133 18.896 9.408 19.008 9.952 19.008C10.1333 19.008 10.2987 18.9973 10.448 18.976C10.5973 18.944 10.7413 18.9067 10.88 18.864L11.104 19.936C10.9013 20.0107 10.6773 20.064 10.432 20.096C10.1973 20.1387 9.94667 20.16 9.68 20.16ZM12.8 12.464L12 11.712C12.2773 11.6693 12.5387 11.5627 12.784 11.392C13.0293 11.2213 13.152 10.976 13.152 10.656H14.544C14.544 10.9867 14.464 11.28 14.304 11.536C14.1547 11.7813 13.9467 11.984 13.68 12.144C13.4133 12.2933 13.12 12.4 12.8 12.464ZM18.9163 20.16C18.2869 20.16 17.7003 20.1013 17.1562 19.984C16.6229 19.856 16.1696 19.7067 15.7963 19.536L16.2122 18.384C16.4363 18.4693 16.6923 18.56 16.9803 18.656C17.2683 18.752 17.5776 18.832 17.9083 18.896C18.2496 18.9493 18.5963 18.976 18.9483 18.976C19.5136 18.976 19.9829 18.8693 20.3563 18.656C20.7296 18.4427 20.9163 18.1333 20.9163 17.728C20.9163 17.4827 20.8469 17.2747 20.7083 17.104C20.5803 16.9227 20.3776 16.7573 20.1003 16.608C19.8229 16.4587 19.4656 16.3147 19.0283 16.176C18.3563 15.9627 17.7856 15.7387 17.3163 15.504C16.8576 15.2587 16.5056 14.9707 16.2603 14.64C16.0256 14.2987 15.9083 13.8773 15.9083 13.376C15.9083 12.928 16.0256 12.5333 16.2603 12.192C16.5056 11.84 16.8789 11.568 17.3803 11.376C17.8923 11.1733 18.5429 11.072 19.3323 11.072C19.8443 11.072 20.3243 11.12 20.7723 11.216C21.2309 11.3013 21.5883 11.424 21.8443 11.584V12.784C21.6629 12.6987 21.4336 12.6133 21.1563 12.528C20.8896 12.4427 20.5963 12.3733 20.2763 12.32C19.9563 12.2667 19.6256 12.24 19.2843 12.24C18.5696 12.24 18.0629 12.352 17.7643 12.576C17.4763 12.7893 17.3323 13.0347 17.3323 13.312C17.3323 13.5467 17.3963 13.744 17.5243 13.904C17.6629 14.064 17.8923 14.2187 18.2123 14.368C18.5429 14.5173 18.9856 14.688 19.5403 14.88C20.0523 15.0507 20.5216 15.248 20.9483 15.472C21.3749 15.696 21.7109 15.9787 21.9563 16.32C22.2123 16.6507 22.3403 17.0773 22.3403 17.6C22.3403 18.048 22.2283 18.4693 22.0043 18.864C21.7909 19.248 21.4336 19.5627 20.9323 19.808C20.4309 20.0427 19.7589 20.16 18.9163 20.16ZM20.2647 24.176V22.48C20.2647 22.2133 20.1474 22.08 19.9127 22.08C19.8594 22.08 19.8061 22.0853 19.7527 22.096C19.6887 22.1067 19.6301 22.1227 19.5767 22.144L19.4647 21.184C19.6247 21.1307 19.8007 21.088 19.9927 21.056C20.1741 21.0347 20.3234 21.024 20.4407 21.024C20.8141 21.024 21.0914 21.1093 21.2727 21.28C21.4434 21.4613 21.5287 21.7067 21.5287 22.016V24.176H20.2647ZM27.7848 20.16C26.5261 20.16 25.6248 19.872 25.0807 19.296C24.5367 18.72 24.2648 17.8987 24.2648 16.832V11.232H25.6888V16.848C25.6888 17.5627 25.8594 18.096 26.2008 18.448C26.5421 18.8 27.0701 18.976 27.7848 18.976C28.5101 18.976 29.0434 18.8 29.3848 18.448C29.7368 18.096 29.9128 17.5627 29.9128 16.848V8.08H31.3368V16.832C31.3368 17.8987 31.0594 18.72 30.5048 19.296C29.9608 19.872 29.0541 20.16 27.7848 20.16ZM14.1875 35.3828H15.6875C15.6094 36.1016 15.4036 36.7448 15.0703 37.3125C14.737 37.8802 14.2656 38.3307 13.6562 38.6641C13.0469 38.9922 12.2865 39.1562 11.375 39.1562C10.7083 39.1562 10.1016 39.0312 9.55469 38.7812C9.01302 38.5312 8.54688 38.1771 8.15625 37.7188C7.76562 37.2552 7.46354 36.7005 7.25 36.0547C7.04167 35.4036 6.9375 34.6797 6.9375 33.8828V32.75C6.9375 31.9531 7.04167 31.2318 7.25 30.5859C7.46354 29.9349 7.76823 29.3776 8.16406 28.9141C8.5651 28.4505 9.04688 28.0938 9.60938 27.8438C10.1719 27.5938 10.8047 27.4688 11.5078 27.4688C12.3672 27.4688 13.0938 27.6302 13.6875 27.9531C14.2812 28.276 14.7422 28.724 15.0703 29.2969C15.4036 29.8646 15.6094 30.5234 15.6875 31.2734H14.1875C14.1146 30.7422 13.9792 30.2865 13.7812 29.9062C13.5833 29.5208 13.3021 29.224 12.9375 29.0156C12.5729 28.8073 12.0964 28.7031 11.5078 28.7031C11.0026 28.7031 10.5573 28.7995 10.1719 28.9922C9.79167 29.1849 9.47135 29.4583 9.21094 29.8125C8.95573 30.1667 8.76302 30.5911 8.63281 31.0859C8.5026 31.5807 8.4375 32.1302 8.4375 32.7344V33.8828C8.4375 34.4401 8.49479 34.9635 8.60938 35.4531C8.72917 35.9427 8.90885 36.3724 9.14844 36.7422C9.38802 37.112 9.69271 37.4036 10.0625 37.6172C10.4323 37.8255 10.8698 37.9297 11.375 37.9297C12.0156 37.9297 12.526 37.8281 12.9062 37.625C13.2865 37.4219 13.5729 37.1302 13.7656 36.75C13.9635 36.3698 14.1042 35.9141 14.1875 35.3828ZM22.5078 37.5547V33.2031C22.5078 32.8698 22.4401 32.5807 22.3047 32.3359C22.1745 32.0859 21.9766 31.8932 21.7109 31.7578C21.4453 31.6224 21.1172 31.5547 20.7266 31.5547C20.362 31.5547 20.0417 31.6172 19.7656 31.7422C19.4948 31.8672 19.2812 32.0312 19.125 32.2344C18.974 32.4375 18.8984 32.6562 18.8984 32.8906H17.4531C17.4531 32.5885 17.5312 32.2891 17.6875 31.9922C17.8438 31.6953 18.0677 31.4271 18.3594 31.1875C18.6562 30.9427 19.0104 30.75 19.4219 30.6094C19.8385 30.4635 20.3021 30.3906 20.8125 30.3906C21.4271 30.3906 21.9688 30.4948 22.4375 30.7031C22.9115 30.9115 23.2812 31.2266 23.5469 31.6484C23.8177 32.0651 23.9531 32.5885 23.9531 33.2188V37.1562C23.9531 37.4375 23.9766 37.737 24.0234 38.0547C24.0755 38.3724 24.151 38.6458 24.25 38.875V39H22.7422C22.6693 38.8333 22.612 38.612 22.5703 38.3359C22.5286 38.0547 22.5078 37.7943 22.5078 37.5547ZM22.7578 33.875L22.7734 34.8906H21.3125C20.901 34.8906 20.5339 34.9245 20.2109 34.9922C19.888 35.0547 19.6172 35.151 19.3984 35.2812C19.1797 35.4115 19.013 35.5755 18.8984 35.7734C18.7839 35.9661 18.7266 36.1927 18.7266 36.4531C18.7266 36.7188 18.7865 36.9609 18.9062 37.1797C19.026 37.3984 19.2057 37.5729 19.4453 37.7031C19.6901 37.8281 19.9896 37.8906 20.3438 37.8906C20.7865 37.8906 21.1771 37.7969 21.5156 37.6094C21.8542 37.4219 22.1224 37.1927 22.3203 36.9219C22.5234 36.651 22.6328 36.388 22.6484 36.1328L23.2656 36.8281C23.2292 37.0469 23.1302 37.2891 22.9688 37.5547C22.8073 37.8203 22.5911 38.0755 22.3203 38.3203C22.0547 38.5599 21.737 38.7604 21.3672 38.9219C21.0026 39.0781 20.5911 39.1562 20.1328 39.1562C19.5599 39.1562 19.0573 39.0443 18.625 38.8203C18.1979 38.5964 17.8646 38.2969 17.625 37.9219C17.3906 37.5417 17.2734 37.1172 17.2734 36.6484C17.2734 36.1953 17.362 35.7969 17.5391 35.4531C17.7161 35.1042 17.9714 34.8151 18.3047 34.5859C18.638 34.3516 19.0391 34.1745 19.5078 34.0547C19.9766 33.9349 20.5 33.875 21.0781 33.875H22.7578ZM27.7969 27V39H26.3438V27H27.7969ZM41.3828 37.8125V39H33.9375V37.9609L37.6641 33.8125C38.1224 33.3021 38.4766 32.8698 38.7266 32.5156C38.9818 32.1562 39.1589 31.8359 39.2578 31.5547C39.362 31.2682 39.4141 30.9766 39.4141 30.6797C39.4141 30.3047 39.3359 29.9661 39.1797 29.6641C39.0286 29.3568 38.8047 29.112 38.5078 28.9297C38.2109 28.7474 37.8516 28.6562 37.4297 28.6562C36.9245 28.6562 36.5026 28.7552 36.1641 28.9531C35.8307 29.1458 35.5807 29.4167 35.4141 29.7656C35.2474 30.1146 35.1641 30.5156 35.1641 30.9688H33.7188C33.7188 30.3281 33.8594 29.7422 34.1406 29.2109C34.4219 28.6797 34.8385 28.2578 35.3906 27.9453C35.9427 27.6276 36.6224 27.4688 37.4297 27.4688C38.1484 27.4688 38.763 27.5964 39.2734 27.8516C39.7839 28.1016 40.1745 28.4557 40.4453 28.9141C40.7214 29.3672 40.8594 29.8984 40.8594 30.5078C40.8594 30.8411 40.8021 31.1797 40.6875 31.5234C40.5781 31.862 40.4245 32.2005 40.2266 32.5391C40.0339 32.8776 39.8073 33.2109 39.5469 33.5391C39.2917 33.8672 39.0182 34.1901 38.7266 34.5078L35.6797 37.8125H41.3828Z" fill="black"/>
</svg>
