<svg width="100" height="141" viewBox="0 0 100 141" fill="none" xmlns="http://www.w3.org/2000/svg">
<rect x="0.5" y="0.5" width="99" height="140" fill="white" stroke="black"/>
<path d="M12.432 20V14.16C12.432 13.4667 12.272 12.976 11.952 12.688C11.6427 12.3893 11.12 12.24 10.384 12.24C9.85067 12.24 9.33867 12.3147 8.848 12.464C8.368 12.6027 7.90933 12.8 7.472 13.056V11.728C7.78133 11.568 8.19733 11.4187 8.72 11.28C9.25333 11.1413 9.85067 11.072 10.512 11.072C11.0773 11.072 11.5573 11.136 11.952 11.264C12.3573 11.392 12.656 11.6267 12.848 11.968C13.2213 12.1387 13.4773 12.4053 13.616 12.768C13.7653 13.1307 13.84 13.568 13.84 14.08V20H12.432ZM9.68 20.16C8.74133 20.16 8.02133 19.9467 7.52 19.52C7.02933 19.0827 6.784 18.4587 6.784 17.648C6.784 16.7627 7.104 16.08 7.744 15.6C8.39467 15.12 9.44533 14.8373 10.896 14.752L12.72 14.64V15.824L11.088 15.936C10 16.0107 9.248 16.1813 8.832 16.448C8.42667 16.7147 8.224 17.104 8.224 17.616C8.224 18.096 8.37333 18.448 8.672 18.672C8.98133 18.896 9.408 19.008 9.952 19.008C10.1333 19.008 10.2987 18.9973 10.448 18.976C10.5973 18.944 10.7413 18.9067 10.88 18.864L11.104 19.936C10.9013 20.0107 10.6773 20.064 10.432 20.096C10.1973 20.1387 9.94667 20.16 9.68 20.16ZM12.8 12.464L12 11.712C12.2773 11.6693 12.5387 11.5627 12.784 11.392C13.0293 11.2213 13.152 10.976 13.152 10.656H14.544C14.544 10.9867 14.464 11.28 14.304 11.536C14.1547 11.7813 13.9467 11.984 13.68 12.144C13.4133 12.2933 13.12 12.4 12.8 12.464ZM18.9163 20.16C18.2869 20.16 17.7003 20.1013 17.1562 19.984C16.6229 19.856 16.1696 19.7067 15.7963 19.536L16.2122 18.384C16.4363 18.4693 16.6923 18.56 16.9803 18.656C17.2683 18.752 17.5776 18.832 17.9083 18.896C18.2496 18.9493 18.5963 18.976 18.9483 18.976C19.5136 18.976 19.9829 18.8693 20.3563 18.656C20.7296 18.4427 20.9163 18.1333 20.9163 17.728C20.9163 17.4827 20.8469 17.2747 20.7083 17.104C20.5803 16.9227 20.3776 16.7573 20.1003 16.608C19.8229 16.4587 19.4656 16.3147 19.0283 16.176C18.3563 15.9627 17.7856 15.7387 17.3163 15.504C16.8576 15.2587 16.5056 14.9707 16.2603 14.64C16.0256 14.2987 15.9083 13.8773 15.9083 13.376C15.9083 12.928 16.0256 12.5333 16.2603 12.192C16.5056 11.84 16.8789 11.568 17.3803 11.376C17.8923 11.1733 18.5429 11.072 19.3323 11.072C19.8443 11.072 20.3243 11.12 20.7723 11.216C21.2309 11.3013 21.5883 11.424 21.8443 11.584V12.784C21.6629 12.6987 21.4336 12.6133 21.1563 12.528C20.8896 12.4427 20.5963 12.3733 20.2763 12.32C19.9563 12.2667 19.6256 12.24 19.2843 12.24C18.5696 12.24 18.0629 12.352 17.7643 12.576C17.4763 12.7893 17.3323 13.0347 17.3323 13.312C17.3323 13.5467 17.3963 13.744 17.5243 13.904C17.6629 14.064 17.8923 14.2187 18.2123 14.368C18.5429 14.5173 18.9856 14.688 19.5403 14.88C20.0523 15.0507 20.5216 15.248 20.9483 15.472C21.3749 15.696 21.7109 15.9787 21.9563 16.32C22.2123 16.6507 22.3403 17.0773 22.3403 17.6C22.3403 18.048 22.2283 18.4693 22.0043 18.864C21.7909 19.248 21.4336 19.5627 20.9323 19.808C20.4309 20.0427 19.7589 20.16 18.9163 20.16ZM20.2647 24.176V22.48C20.2647 22.2133 20.1474 22.08 19.9127 22.08C19.8594 22.08 19.8061 22.0853 19.7527 22.096C19.6887 22.1067 19.6301 22.1227 19.5767 22.144L19.4647 21.184C19.6247 21.1307 19.8007 21.088 19.9927 21.056C20.1741 21.0347 20.3234 21.024 20.4407 21.024C20.8141 21.024 21.0914 21.1093 21.2727 21.28C21.4434 21.4613 21.5287 21.7067 21.5287 22.016V24.176H20.2647ZM27.7848 20.16C26.5261 20.16 25.6248 19.872 25.0807 19.296C24.5367 18.72 24.2648 17.8987 24.2648 16.832V11.232H25.6888V16.848C25.6888 17.5627 25.8594 18.096 26.2008 18.448C26.5421 18.8 27.0701 18.976 27.7848 18.976C28.5101 18.976 29.0434 18.8 29.3848 18.448C29.7368 18.096 29.9128 17.5627 29.9128 16.848V8.08H31.3368V16.832C31.3368 17.8987 31.0594 18.72 30.5048 19.296C29.9608 19.872 29.0541 20.16 27.7848 20.16ZM14.5469 37.7734V39H8.52344V37.7734H14.5469ZM8.82812 27.625V39H7.32031V27.625H8.82812ZM13.75 32.5156V33.7422H8.52344V32.5156H13.75ZM14.4688 27.625V28.8594H8.52344V27.625H14.4688ZM25.1641 27.625V39H23.6484L17.9219 30.2266V39H16.4141V27.625H17.9219L23.6719 36.4219V27.625H25.1641ZM36.2422 33.3359V37.5C36.1016 37.7083 35.8776 37.9427 35.5703 38.2031C35.263 38.4583 34.8385 38.6823 34.2969 38.875C33.7604 39.0625 33.0677 39.1562 32.2188 39.1562C31.526 39.1562 30.888 39.0365 30.3047 38.7969C29.7266 38.5521 29.224 38.1979 28.7969 37.7344C28.375 37.2656 28.0469 36.6979 27.8125 36.0312C27.5833 35.3594 27.4688 34.599 27.4688 33.75V32.8672C27.4688 32.0182 27.5677 31.2604 27.7656 30.5938C27.9688 29.9271 28.2656 29.362 28.6562 28.8984C29.0469 28.4297 29.526 28.0755 30.0938 27.8359C30.6615 27.5911 31.3125 27.4688 32.0469 27.4688C32.9167 27.4688 33.6432 27.6198 34.2266 27.9219C34.8151 28.2188 35.2734 28.6302 35.6016 29.1562C35.9349 29.6823 36.1484 30.2812 36.2422 30.9531H34.7344C34.6667 30.5417 34.5312 30.1667 34.3281 29.8281C34.1302 29.4896 33.8464 29.2188 33.4766 29.0156C33.1068 28.8073 32.6302 28.7031 32.0469 28.7031C31.5208 28.7031 31.0651 28.7995 30.6797 28.9922C30.2943 29.1849 29.9766 29.4609 29.7266 29.8203C29.4766 30.1797 29.2891 30.6146 29.1641 31.125C29.0443 31.6354 28.9844 32.2109 28.9844 32.8516V33.75C28.9844 34.4062 29.0599 34.9922 29.2109 35.5078C29.3672 36.0234 29.5885 36.4635 29.875 36.8281C30.1615 37.1875 30.5026 37.4609 30.8984 37.6484C31.2995 37.8359 31.7422 37.9297 32.2266 37.9297C32.763 37.9297 33.1979 37.8854 33.5312 37.7969C33.8646 37.7031 34.125 37.5938 34.3125 37.4688C34.5 37.3385 34.6432 37.2161 34.7422 37.1016V34.5547H32.1094V33.3359H36.2422ZM48.7734 36.125C48.7734 35.8594 48.7318 35.625 48.6484 35.4219C48.5703 35.2135 48.4297 35.026 48.2266 34.8594C48.0286 34.6927 47.7526 34.5339 47.3984 34.3828C47.0495 34.2318 46.6068 34.0781 46.0703 33.9219C45.5078 33.7552 45 33.5703 44.5469 33.3672C44.0938 33.1589 43.7057 32.9219 43.3828 32.6562C43.0599 32.3906 42.8125 32.0859 42.6406 31.7422C42.4688 31.3984 42.3828 31.0052 42.3828 30.5625C42.3828 30.1198 42.474 29.7109 42.6562 29.3359C42.8385 28.9609 43.099 28.6354 43.4375 28.3594C43.7812 28.0781 44.1901 27.8594 44.6641 27.7031C45.138 27.5469 45.6667 27.4688 46.25 27.4688C47.1042 27.4688 47.8281 27.6328 48.4219 27.9609C49.0208 28.2839 49.4766 28.7083 49.7891 29.2344C50.1016 29.7552 50.2578 30.3125 50.2578 30.9062H48.7578C48.7578 30.4792 48.6667 30.1016 48.4844 29.7734C48.3021 29.4401 48.026 29.1797 47.6562 28.9922C47.2865 28.7995 46.8177 28.7031 46.25 28.7031C45.7135 28.7031 45.2708 28.7839 44.9219 28.9453C44.5729 29.1068 44.3125 29.3255 44.1406 29.6016C43.974 29.8776 43.8906 30.1927 43.8906 30.5469C43.8906 30.7865 43.9401 31.0052 44.0391 31.2031C44.1432 31.3958 44.3021 31.5755 44.5156 31.7422C44.7344 31.9089 45.0104 32.0625 45.3438 32.2031C45.6823 32.3438 46.0859 32.4792 46.5547 32.6094C47.2005 32.7917 47.7578 32.9948 48.2266 33.2188C48.6953 33.4427 49.0807 33.6953 49.3828 33.9766C49.6901 34.2526 49.9167 34.5677 50.0625 34.9219C50.2135 35.2708 50.2891 35.6667 50.2891 36.1094C50.2891 36.5729 50.1953 36.9922 50.0078 37.3672C49.8203 37.7422 49.5521 38.0625 49.2031 38.3281C48.8542 38.5938 48.4349 38.7995 47.9453 38.9453C47.4609 39.0859 46.9193 39.1562 46.3203 39.1562C45.7943 39.1562 45.276 39.0833 44.7656 38.9375C44.2604 38.7917 43.7995 38.5729 43.3828 38.2812C42.9714 37.9896 42.6406 37.6302 42.3906 37.2031C42.1458 36.7708 42.0234 36.2708 42.0234 35.7031H43.5234C43.5234 36.0938 43.599 36.4297 43.75 36.7109C43.901 36.987 44.1068 37.2161 44.3672 37.3984C44.6328 37.5807 44.9323 37.7161 45.2656 37.8047C45.6042 37.888 45.9557 37.9297 46.3203 37.9297C46.8464 37.9297 47.2917 37.8568 47.6562 37.7109C48.0208 37.5651 48.2969 37.3568 48.4844 37.0859C48.6771 36.8151 48.7734 36.4948 48.7734 36.125ZM56.4141 27.625V39H54.9297V27.625H56.4141ZM60.0703 27.625V28.8594H51.2812V27.625H60.0703ZM65.3438 28.6328L61.5781 39H60.0391L64.375 27.625H65.3672L65.3438 28.6328ZM68.5 39L64.7266 28.6328L64.7031 27.625H65.6953L70.0469 39H68.5ZM68.3047 34.7891V36.0234H61.9141V34.7891H68.3047ZM74.7578 27.625V39H73.2734V27.625H74.7578ZM78.4141 27.625V28.8594H69.625V27.625H78.4141ZM86.0391 36.125C86.0391 35.8594 85.9974 35.625 85.9141 35.4219C85.8359 35.2135 85.6953 35.026 85.4922 34.8594C85.2943 34.6927 85.0182 34.5339 84.6641 34.3828C84.3151 34.2318 83.8724 34.0781 83.3359 33.9219C82.7734 33.7552 82.2656 33.5703 81.8125 33.3672C81.3594 33.1589 80.9714 32.9219 80.6484 32.6562C80.3255 32.3906 80.0781 32.0859 79.9062 31.7422C79.7344 31.3984 79.6484 31.0052 79.6484 30.5625C79.6484 30.1198 79.7396 29.7109 79.9219 29.3359C80.1042 28.9609 80.3646 28.6354 80.7031 28.3594C81.0469 28.0781 81.4557 27.8594 81.9297 27.7031C82.4036 27.5469 82.9323 27.4688 83.5156 27.4688C84.3698 27.4688 85.0938 27.6328 85.6875 27.9609C86.2865 28.2839 86.7422 28.7083 87.0547 29.2344C87.3672 29.7552 87.5234 30.3125 87.5234 30.9062H86.0234C86.0234 30.4792 85.9323 30.1016 85.75 29.7734C85.5677 29.4401 85.2917 29.1797 84.9219 28.9922C84.5521 28.7995 84.0833 28.7031 83.5156 28.7031C82.9792 28.7031 82.5365 28.7839 82.1875 28.9453C81.8385 29.1068 81.5781 29.3255 81.4062 29.6016C81.2396 29.8776 81.1562 30.1927 81.1562 30.5469C81.1562 30.7865 81.2057 31.0052 81.3047 31.2031C81.4089 31.3958 81.5677 31.5755 81.7812 31.7422C82 31.9089 82.276 32.0625 82.6094 32.2031C82.9479 32.3438 83.3516 32.4792 83.8203 32.6094C84.4661 32.7917 85.0234 32.9948 85.4922 33.2188C85.9609 33.4427 86.3464 33.6953 86.6484 33.9766C86.9557 34.2526 87.1823 34.5677 87.3281 34.9219C87.4792 35.2708 87.5547 35.6667 87.5547 36.1094C87.5547 36.5729 87.4609 36.9922 87.2734 37.3672C87.0859 37.7422 86.8177 38.0625 86.4688 38.3281C86.1198 38.5938 85.7005 38.7995 85.2109 38.9453C84.7266 39.0859 84.1849 39.1562 83.5859 39.1562C83.0599 39.1562 82.5417 39.0833 82.0312 38.9375C81.526 38.7917 81.0651 38.5729 80.6484 38.2812C80.237 37.9896 79.9062 37.6302 79.6562 37.2031C79.4115 36.7708 79.2891 36.2708 79.2891 35.7031H80.7891C80.7891 36.0938 80.8646 36.4297 81.0156 36.7109C81.1667 36.987 81.3724 37.2161 81.6328 37.3984C81.8984 37.5807 82.1979 37.7161 82.5312 37.8047C82.8698 37.888 83.2214 37.9297 83.5859 37.9297C84.112 37.9297 84.5573 37.8568 84.9219 37.7109C85.2865 37.5651 85.5625 37.3568 85.75 37.0859C85.9427 36.8151 86.0391 36.4948 86.0391 36.125Z" fill="black"/>
</svg>
