<svg width="28" height="26" viewBox="0 0 28 26" fill="none" xmlns="http://www.w3.org/2000/svg">
<path d="M14.6428 7.95245L14.2822 9.01053H15.4H25.2C25.7362 9.01053 26.247 9.21892 26.6207 9.58423C26.9938 9.94894 27.2 10.4397 27.2 10.9474V13.5962L27.1149 13.9782L21.89 25.2H7.8V7.75861L14.3456 0.800237C14.6549 0.804923 14.9584 0.879033 15.2324 1.01622C15.5155 1.15791 15.7583 1.36239 15.9419 1.61138L16.5858 1.1366L15.9419 1.61139C16.1254 1.86029 16.2449 2.14684 16.2918 2.44725C16.3387 2.7476 16.312 3.05466 16.2136 3.3436C16.2136 3.34362 16.2136 3.34363 16.2136 3.34365L14.6428 7.95245ZM3.4 9.01053V25.2H2.8C2.26375 25.2 1.75304 24.9916 1.3793 24.6263L0.820101 25.1984L1.3793 24.6263C1.00617 24.2616 0.8 23.7709 0.8 23.2632V10.9474C0.8 10.4397 1.00617 9.94894 1.3793 9.58423C1.75304 9.21892 2.26375 9.01053 2.8 9.01053H3.4Z" fill="white" stroke="black" stroke-width="1.6"/>
</svg>
