<svg width="41" height="41" viewBox="0 0 41 41" fill="none" xmlns="http://www.w3.org/2000/svg">
<path d="M20.5 26.65C21.0808 26.65 21.5677 26.4535 21.9606 26.0606C22.3535 25.6677 22.55 25.1808 22.55 24.6C22.55 24.0192 22.3535 23.5323 21.9606 23.1394C21.5677 22.7465 21.0808 22.55 20.5 22.55C19.9192 22.55 19.4323 22.7465 19.0394 23.1394C18.6465 23.5323 18.45 24.0192 18.45 24.6C18.45 25.1808 18.6465 25.6677 19.0394 26.0606C19.4323 26.4535 19.9192 26.65 20.5 26.65ZM18.45 18.45H22.55V6.15H18.45V18.45ZM0 41V4.1C0 2.9725 0.401458 2.00729 1.20438 1.20438C2.00729 0.401458 2.9725 0 4.1 0H36.9C38.0275 0 38.9927 0.401458 39.7956 1.20438C40.5985 2.00729 41 2.9725 41 4.1V28.7C41 29.8275 40.5985 30.7927 39.7956 31.5956C38.9927 32.3985 38.0275 32.8 36.9 32.8H8.2L0 41ZM6.4575 28.7H36.9V4.1H4.1V31.0063L6.4575 28.7Z" fill="#FF0101"/>
</svg>
