<svg width="100" height="141" viewBox="0 0 100 141" fill="none" xmlns="http://www.w3.org/2000/svg">
<rect x="0.5" y="0.5" width="99" height="140" fill="white" stroke="black"/>
<path d="M12.432 20V14.16C12.432 13.4667 12.272 12.976 11.952 12.688C11.6427 12.3893 11.12 12.24 10.384 12.24C9.85067 12.24 9.33867 12.3147 8.848 12.464C8.368 12.6027 7.90933 12.8 7.472 13.056V11.728C7.78133 11.568 8.19733 11.4187 8.72 11.28C9.25333 11.1413 9.85067 11.072 10.512 11.072C11.0773 11.072 11.5573 11.136 11.952 11.264C12.3573 11.392 12.656 11.6267 12.848 11.968C13.2213 12.1387 13.4773 12.4053 13.616 12.768C13.7653 13.1307 13.84 13.568 13.84 14.08V20H12.432ZM9.68 20.16C8.74133 20.16 8.02133 19.9467 7.52 19.52C7.02933 19.0827 6.784 18.4587 6.784 17.648C6.784 16.7627 7.104 16.08 7.744 15.6C8.39467 15.12 9.44533 14.8373 10.896 14.752L12.72 14.64V15.824L11.088 15.936C10 16.0107 9.248 16.1813 8.832 16.448C8.42667 16.7147 8.224 17.104 8.224 17.616C8.224 18.096 8.37333 18.448 8.672 18.672C8.98133 18.896 9.408 19.008 9.952 19.008C10.1333 19.008 10.2987 18.9973 10.448 18.976C10.5973 18.944 10.7413 18.9067 10.88 18.864L11.104 19.936C10.9013 20.0107 10.6773 20.064 10.432 20.096C10.1973 20.1387 9.94667 20.16 9.68 20.16ZM12.8 12.464L12 11.712C12.2773 11.6693 12.5387 11.5627 12.784 11.392C13.0293 11.2213 13.152 10.976 13.152 10.656H14.544C14.544 10.9867 14.464 11.28 14.304 11.536C14.1547 11.7813 13.9467 11.984 13.68 12.144C13.4133 12.2933 13.12 12.4 12.8 12.464ZM18.9163 20.16C18.2869 20.16 17.7003 20.1013 17.1562 19.984C16.6229 19.856 16.1696 19.7067 15.7963 19.536L16.2122 18.384C16.4363 18.4693 16.6923 18.56 16.9803 18.656C17.2683 18.752 17.5776 18.832 17.9083 18.896C18.2496 18.9493 18.5963 18.976 18.9483 18.976C19.5136 18.976 19.9829 18.8693 20.3563 18.656C20.7296 18.4427 20.9163 18.1333 20.9163 17.728C20.9163 17.4827 20.8469 17.2747 20.7083 17.104C20.5803 16.9227 20.3776 16.7573 20.1003 16.608C19.8229 16.4587 19.4656 16.3147 19.0283 16.176C18.3563 15.9627 17.7856 15.7387 17.3163 15.504C16.8576 15.2587 16.5056 14.9707 16.2603 14.64C16.0256 14.2987 15.9083 13.8773 15.9083 13.376C15.9083 12.928 16.0256 12.5333 16.2603 12.192C16.5056 11.84 16.8789 11.568 17.3803 11.376C17.8923 11.1733 18.5429 11.072 19.3323 11.072C19.8443 11.072 20.3243 11.12 20.7723 11.216C21.2309 11.3013 21.5883 11.424 21.8443 11.584V12.784C21.6629 12.6987 21.4336 12.6133 21.1563 12.528C20.8896 12.4427 20.5963 12.3733 20.2763 12.32C19.9563 12.2667 19.6256 12.24 19.2843 12.24C18.5696 12.24 18.0629 12.352 17.7643 12.576C17.4763 12.7893 17.3323 13.0347 17.3323 13.312C17.3323 13.5467 17.3963 13.744 17.5243 13.904C17.6629 14.064 17.8923 14.2187 18.2123 14.368C18.5429 14.5173 18.9856 14.688 19.5403 14.88C20.0523 15.0507 20.5216 15.248 20.9483 15.472C21.3749 15.696 21.7109 15.9787 21.9563 16.32C22.2123 16.6507 22.3403 17.0773 22.3403 17.6C22.3403 18.048 22.2283 18.4693 22.0043 18.864C21.7909 19.248 21.4336 19.5627 20.9323 19.808C20.4309 20.0427 19.7589 20.16 18.9163 20.16ZM20.2647 24.176V22.48C20.2647 22.2133 20.1474 22.08 19.9127 22.08C19.8594 22.08 19.8061 22.0853 19.7527 22.096C19.6887 22.1067 19.6301 22.1227 19.5767 22.144L19.4647 21.184C19.6247 21.1307 19.8007 21.088 19.9927 21.056C20.1741 21.0347 20.3234 21.024 20.4407 21.024C20.8141 21.024 21.0914 21.1093 21.2727 21.28C21.4434 21.4613 21.5287 21.7067 21.5287 22.016V24.176H20.2647ZM27.7848 20.16C26.5261 20.16 25.6248 19.872 25.0807 19.296C24.5367 18.72 24.2648 17.8987 24.2648 16.832V11.232H25.6888V16.848C25.6888 17.5627 25.8594 18.096 26.2008 18.448C26.5421 18.8 27.0701 18.976 27.7848 18.976C28.5101 18.976 29.0434 18.8 29.3848 18.448C29.7368 18.096 29.9128 17.5627 29.9128 16.848V8.08H31.3368V16.832C31.3368 17.8987 31.0594 18.72 30.5048 19.296C29.9608 19.872 29.0541 20.16 27.7848 20.16ZM14.5469 37.7734V39H8.52344V37.7734H14.5469ZM8.82812 27.625V39H7.32031V27.625H8.82812ZM13.75 32.5156V33.7422H8.52344V32.5156H13.75ZM14.4688 27.625V28.8594H8.52344V27.625H14.4688ZM17.7656 27V39H16.3125V27H17.7656ZM23.5938 39.1562C23.0052 39.1562 22.4714 39.0573 21.9922 38.8594C21.5182 38.6562 21.1094 38.3724 20.7656 38.0078C20.4271 37.6432 20.1667 37.2109 19.9844 36.7109C19.8021 36.2109 19.7109 35.6641 19.7109 35.0703V34.7422C19.7109 34.0547 19.8125 33.4427 20.0156 32.9062C20.2188 32.3646 20.4948 31.9062 20.8438 31.5312C21.1927 31.1562 21.5885 30.8724 22.0312 30.6797C22.474 30.487 22.9323 30.3906 23.4062 30.3906C24.0104 30.3906 24.5312 30.4948 24.9688 30.7031C25.4115 30.9115 25.7734 31.2031 26.0547 31.5781C26.3359 31.9479 26.5443 32.3854 26.6797 32.8906C26.8151 33.3906 26.8828 33.9375 26.8828 34.5312V35.1797H20.5703V34H25.4375V33.8906C25.4167 33.5156 25.3385 33.151 25.2031 32.7969C25.0729 32.4427 24.8646 32.151 24.5781 31.9219C24.2917 31.6927 23.901 31.5781 23.4062 31.5781C23.0781 31.5781 22.776 31.6484 22.5 31.7891C22.224 31.9245 21.987 32.1276 21.7891 32.3984C21.5911 32.6693 21.4375 33 21.3281 33.3906C21.2188 33.7812 21.1641 34.2318 21.1641 34.7422V35.0703C21.1641 35.4714 21.2188 35.849 21.3281 36.2031C21.4427 36.5521 21.6068 36.8594 21.8203 37.125C22.0391 37.3906 22.3021 37.599 22.6094 37.75C22.9219 37.901 23.276 37.9766 23.6719 37.9766C24.1823 37.9766 24.6146 37.8724 24.9688 37.6641C25.3229 37.4557 25.6328 37.1771 25.8984 36.8281L26.7734 37.5234C26.5911 37.7995 26.3594 38.0625 26.0781 38.3125C25.7969 38.5625 25.4505 38.7656 25.0391 38.9219C24.6328 39.0781 24.151 39.1562 23.5938 39.1562ZM31.9531 37.9688C32.2969 37.9688 32.6146 37.8984 32.9062 37.7578C33.1979 37.6172 33.4375 37.4245 33.625 37.1797C33.8125 36.9297 33.9193 36.6458 33.9453 36.3281H35.3203C35.2943 36.8281 35.125 37.2943 34.8125 37.7266C34.5052 38.1536 34.1016 38.5 33.6016 38.7656C33.1016 39.026 32.5521 39.1562 31.9531 39.1562C31.3177 39.1562 30.763 39.0443 30.2891 38.8203C29.8203 38.5964 29.4297 38.2891 29.1172 37.8984C28.8099 37.5078 28.5781 37.0599 28.4219 36.5547C28.2708 36.0443 28.1953 35.5052 28.1953 34.9375V34.6094C28.1953 34.0417 28.2708 33.5052 28.4219 33C28.5781 32.4896 28.8099 32.0391 29.1172 31.6484C29.4297 31.2578 29.8203 30.9505 30.2891 30.7266C30.763 30.5026 31.3177 30.3906 31.9531 30.3906C32.6146 30.3906 33.1927 30.526 33.6875 30.7969C34.1823 31.0625 34.5703 31.4271 34.8516 31.8906C35.138 32.349 35.2943 32.8698 35.3203 33.4531H33.9453C33.9193 33.1042 33.8203 32.7891 33.6484 32.5078C33.4818 32.2266 33.2526 32.0026 32.9609 31.8359C32.6745 31.6641 32.3385 31.5781 31.9531 31.5781C31.5104 31.5781 31.138 31.6667 30.8359 31.8438C30.5391 32.0156 30.3021 32.25 30.125 32.5469C29.9531 32.8385 29.8281 33.1641 29.75 33.5234C29.6771 33.8776 29.6406 34.2396 29.6406 34.6094V34.9375C29.6406 35.3073 29.6771 35.6719 29.75 36.0312C29.8229 36.3906 29.9453 36.7161 30.1172 37.0078C30.2943 37.2995 30.5312 37.5339 30.8281 37.7109C31.1302 37.8828 31.5052 37.9688 31.9531 37.9688ZM40.4844 30.5469V31.6562H35.9141V30.5469H40.4844ZM37.4609 28.4922H38.9062V36.9062C38.9062 37.1927 38.9505 37.4089 39.0391 37.5547C39.1276 37.7005 39.2422 37.7969 39.3828 37.8438C39.5234 37.8906 39.6745 37.9141 39.8359 37.9141C39.9557 37.9141 40.0807 37.9036 40.2109 37.8828C40.3464 37.8568 40.4479 37.8359 40.5156 37.8203L40.5234 39C40.4089 39.0365 40.2578 39.0703 40.0703 39.1016C39.888 39.138 39.6667 39.1562 39.4062 39.1562C39.0521 39.1562 38.7266 39.0859 38.4297 38.9453C38.1328 38.8047 37.8958 38.5703 37.7188 38.2422C37.5469 37.9089 37.4609 37.4609 37.4609 36.8984V28.4922ZM43.625 31.875V39H42.1797V30.5469H43.5859L43.625 31.875ZM46.2656 30.5L46.2578 31.8438C46.138 31.8177 46.0234 31.8021 45.9141 31.7969C45.8099 31.7865 45.6901 31.7812 45.5547 31.7812C45.2214 31.7812 44.9271 31.8333 44.6719 31.9375C44.4167 32.0417 44.2005 32.1875 44.0234 32.375C43.8464 32.5625 43.7057 32.7865 43.6016 33.0469C43.5026 33.3021 43.4375 33.5833 43.4062 33.8906L43 34.125C43 33.6146 43.0495 33.1354 43.1484 32.6875C43.2526 32.2396 43.4115 31.8438 43.625 31.5C43.8385 31.151 44.1094 30.8802 44.4375 30.6875C44.7708 30.4896 45.1667 30.3906 45.625 30.3906C45.7292 30.3906 45.849 30.4036 45.9844 30.4297C46.1198 30.4505 46.2135 30.474 46.2656 30.5ZM47.0625 34.8672V34.6875C47.0625 34.0781 47.151 33.513 47.3281 32.9922C47.5052 32.4661 47.7604 32.0104 48.0938 31.625C48.4271 31.2344 48.8307 30.9323 49.3047 30.7188C49.7786 30.5 50.3099 30.3906 50.8984 30.3906C51.4922 30.3906 52.026 30.5 52.5 30.7188C52.9792 30.9323 53.3854 31.2344 53.7188 31.625C54.0573 32.0104 54.3151 32.4661 54.4922 32.9922C54.6693 33.513 54.7578 34.0781 54.7578 34.6875V34.8672C54.7578 35.4766 54.6693 36.0417 54.4922 36.5625C54.3151 37.0833 54.0573 37.5391 53.7188 37.9297C53.3854 38.3151 52.9818 38.6172 52.5078 38.8359C52.0391 39.0495 51.5078 39.1562 50.9141 39.1562C50.3203 39.1562 49.7865 39.0495 49.3125 38.8359C48.8385 38.6172 48.4323 38.3151 48.0938 37.9297C47.7604 37.5391 47.5052 37.0833 47.3281 36.5625C47.151 36.0417 47.0625 35.4766 47.0625 34.8672ZM48.5078 34.6875V34.8672C48.5078 35.2891 48.5573 35.6875 48.6562 36.0625C48.7552 36.4323 48.9036 36.7604 49.1016 37.0469C49.3047 37.3333 49.5573 37.5599 49.8594 37.7266C50.1615 37.888 50.513 37.9688 50.9141 37.9688C51.3099 37.9688 51.6562 37.888 51.9531 37.7266C52.2552 37.5599 52.5052 37.3333 52.7031 37.0469C52.901 36.7604 53.0495 36.4323 53.1484 36.0625C53.2526 35.6875 53.3047 35.2891 53.3047 34.8672V34.6875C53.3047 34.2708 53.2526 33.8776 53.1484 33.5078C53.0495 33.1328 52.8984 32.8021 52.6953 32.5156C52.4974 32.224 52.2474 31.9948 51.9453 31.8281C51.6484 31.6615 51.2995 31.5781 50.8984 31.5781C50.5026 31.5781 50.1536 31.6615 49.8516 31.8281C49.5547 31.9948 49.3047 32.224 49.1016 32.5156C48.9036 32.8021 48.7552 33.1328 48.6562 33.5078C48.5573 33.8776 48.5078 34.2708 48.5078 34.6875ZM58.0156 32.3516V39H56.5703V30.5469H57.9375L58.0156 32.3516ZM57.6719 34.4531L57.0703 34.4297C57.0755 33.8516 57.1615 33.3177 57.3281 32.8281C57.4948 32.3333 57.7292 31.9036 58.0312 31.5391C58.3333 31.1745 58.6927 30.8932 59.1094 30.6953C59.5312 30.4922 59.9974 30.3906 60.5078 30.3906C60.9245 30.3906 61.2995 30.4479 61.6328 30.5625C61.9661 30.6719 62.25 30.849 62.4844 31.0938C62.724 31.3385 62.9062 31.6562 63.0312 32.0469C63.1562 32.4323 63.2188 32.9036 63.2188 33.4609V39H61.7656V33.4453C61.7656 33.0026 61.7005 32.6484 61.5703 32.3828C61.4401 32.112 61.25 31.9167 61 31.7969C60.75 31.6719 60.4427 31.6094 60.0781 31.6094C59.7188 31.6094 59.3906 31.6849 59.0938 31.8359C58.8021 31.987 58.5495 32.1953 58.3359 32.4609C58.1276 32.7266 57.9635 33.0312 57.8438 33.375C57.7292 33.7135 57.6719 34.0729 57.6719 34.4531ZM66.9844 30.5469V39H65.5312V30.5469H66.9844ZM65.4219 28.3047C65.4219 28.0703 65.4922 27.8724 65.6328 27.7109C65.7786 27.5495 65.9922 27.4688 66.2734 27.4688C66.5495 27.4688 66.7604 27.5495 66.9062 27.7109C67.0573 27.8724 67.1328 28.0703 67.1328 28.3047C67.1328 28.5286 67.0573 28.7214 66.9062 28.8828C66.7604 29.0391 66.5495 29.1172 66.2734 29.1172C65.9922 29.1172 65.7786 29.0391 65.6328 28.8828C65.4922 28.7214 65.4219 28.5286 65.4219 28.3047ZM72.6875 37.9688C73.0312 37.9688 73.349 37.8984 73.6406 37.7578C73.9323 37.6172 74.1719 37.4245 74.3594 37.1797C74.5469 36.9297 74.6536 36.6458 74.6797 36.3281H76.0547C76.0286 36.8281 75.8594 37.2943 75.5469 37.7266C75.2396 38.1536 74.8359 38.5 74.3359 38.7656C73.8359 39.026 73.2865 39.1562 72.6875 39.1562C72.0521 39.1562 71.4974 39.0443 71.0234 38.8203C70.5547 38.5964 70.1641 38.2891 69.8516 37.8984C69.5443 37.5078 69.3125 37.0599 69.1562 36.5547C69.0052 36.0443 68.9297 35.5052 68.9297 34.9375V34.6094C68.9297 34.0417 69.0052 33.5052 69.1562 33C69.3125 32.4896 69.5443 32.0391 69.8516 31.6484C70.1641 31.2578 70.5547 30.9505 71.0234 30.7266C71.4974 30.5026 72.0521 30.3906 72.6875 30.3906C73.349 30.3906 73.9271 30.526 74.4219 30.7969C74.9167 31.0625 75.3047 31.4271 75.5859 31.8906C75.8724 32.349 76.0286 32.8698 76.0547 33.4531H74.6797C74.6536 33.1042 74.5547 32.7891 74.3828 32.5078C74.2161 32.2266 73.987 32.0026 73.6953 31.8359C73.4089 31.6641 73.0729 31.5781 72.6875 31.5781C72.2448 31.5781 71.8724 31.6667 71.5703 31.8438C71.2734 32.0156 71.0365 32.25 70.8594 32.5469C70.6875 32.8385 70.5625 33.1641 70.4844 33.5234C70.4115 33.8776 70.375 34.2396 70.375 34.6094V34.9375C70.375 35.3073 70.4115 35.6719 70.4844 36.0312C70.5573 36.3906 70.6797 36.7161 70.8516 37.0078C71.0286 37.2995 71.2656 37.5339 71.5625 37.7109C71.8646 37.8828 72.2396 37.9688 72.6875 37.9688ZM14.1875 54.3828H15.6875C15.6094 55.1016 15.4036 55.7448 15.0703 56.3125C14.737 56.8802 14.2656 57.3307 13.6562 57.6641C13.0469 57.9922 12.2865 58.1562 11.375 58.1562C10.7083 58.1562 10.1016 58.0312 9.55469 57.7812C9.01302 57.5312 8.54688 57.1771 8.15625 56.7188C7.76562 56.2552 7.46354 55.7005 7.25 55.0547C7.04167 54.4036 6.9375 53.6797 6.9375 52.8828V51.75C6.9375 50.9531 7.04167 50.2318 7.25 49.5859C7.46354 48.9349 7.76823 48.3776 8.16406 47.9141C8.5651 47.4505 9.04688 47.0938 9.60938 46.8438C10.1719 46.5938 10.8047 46.4688 11.5078 46.4688C12.3672 46.4688 13.0938 46.6302 13.6875 46.9531C14.2812 47.276 14.7422 47.724 15.0703 48.2969C15.4036 48.8646 15.6094 49.5234 15.6875 50.2734H14.1875C14.1146 49.7422 13.9792 49.2865 13.7812 48.9062C13.5833 48.5208 13.3021 48.224 12.9375 48.0156C12.5729 47.8073 12.0964 47.7031 11.5078 47.7031C11.0026 47.7031 10.5573 47.7995 10.1719 47.9922C9.79167 48.1849 9.47135 48.4583 9.21094 48.8125C8.95573 49.1667 8.76302 49.5911 8.63281 50.0859C8.5026 50.5807 8.4375 51.1302 8.4375 51.7344V52.8828C8.4375 53.4401 8.49479 53.9635 8.60938 54.4531C8.72917 54.9427 8.90885 55.3724 9.14844 55.7422C9.38802 56.112 9.69271 56.4036 10.0625 56.6172C10.4323 56.8255 10.8698 56.9297 11.375 56.9297C12.0156 56.9297 12.526 56.8281 12.9062 56.625C13.2865 56.4219 13.5729 56.1302 13.7656 55.75C13.9635 55.3698 14.1042 54.9141 14.1875 54.3828ZM19.0938 49.5469V58H17.6406V49.5469H19.0938ZM17.5312 47.3047C17.5312 47.0703 17.6016 46.8724 17.7422 46.7109C17.888 46.5495 18.1016 46.4688 18.3828 46.4688C18.6589 46.4688 18.8698 46.5495 19.0156 46.7109C19.1667 46.8724 19.2422 47.0703 19.2422 47.3047C19.2422 47.5286 19.1667 47.7214 19.0156 47.8828C18.8698 48.0391 18.6589 48.1172 18.3828 48.1172C18.1016 48.1172 17.888 48.0391 17.7422 47.8828C17.6016 47.7214 17.5312 47.5286 17.5312 47.3047ZM22.8594 50.875V58H21.4141V49.5469H22.8203L22.8594 50.875ZM25.5 49.5L25.4922 50.8438C25.3724 50.8177 25.2578 50.8021 25.1484 50.7969C25.0443 50.7865 24.9245 50.7812 24.7891 50.7812C24.4557 50.7812 24.1615 50.8333 23.9062 50.9375C23.651 51.0417 23.4349 51.1875 23.2578 51.375C23.0807 51.5625 22.9401 51.7865 22.8359 52.0469C22.737 52.3021 22.6719 52.5833 22.6406 52.8906L22.2344 53.125C22.2344 52.6146 22.2839 52.1354 22.3828 51.6875C22.487 51.2396 22.6458 50.8438 22.8594 50.5C23.0729 50.151 23.3438 49.8802 23.6719 49.6875C24.0052 49.4896 24.401 49.3906 24.8594 49.3906C24.9635 49.3906 25.0833 49.4036 25.2188 49.4297C25.3542 49.4505 25.4479 49.474 25.5 49.5ZM30.0625 56.9688C30.4062 56.9688 30.724 56.8984 31.0156 56.7578C31.3073 56.6172 31.5469 56.4245 31.7344 56.1797C31.9219 55.9297 32.0286 55.6458 32.0547 55.3281H33.4297C33.4036 55.8281 33.2344 56.2943 32.9219 56.7266C32.6146 57.1536 32.2109 57.5 31.7109 57.7656C31.2109 58.026 30.6615 58.1562 30.0625 58.1562C29.4271 58.1562 28.8724 58.0443 28.3984 57.8203C27.9297 57.5964 27.5391 57.2891 27.2266 56.8984C26.9193 56.5078 26.6875 56.0599 26.5312 55.5547C26.3802 55.0443 26.3047 54.5052 26.3047 53.9375V53.6094C26.3047 53.0417 26.3802 52.5052 26.5312 52C26.6875 51.4896 26.9193 51.0391 27.2266 50.6484C27.5391 50.2578 27.9297 49.9505 28.3984 49.7266C28.8724 49.5026 29.4271 49.3906 30.0625 49.3906C30.724 49.3906 31.3021 49.526 31.7969 49.7969C32.2917 50.0625 32.6797 50.4271 32.9609 50.8906C33.2474 51.349 33.4036 51.8698 33.4297 52.4531H32.0547C32.0286 52.1042 31.9297 51.7891 31.7578 51.5078C31.5911 51.2266 31.362 51.0026 31.0703 50.8359C30.7839 50.6641 30.4479 50.5781 30.0625 50.5781C29.6198 50.5781 29.2474 50.6667 28.9453 50.8438C28.6484 51.0156 28.4115 51.25 28.2344 51.5469C28.0625 51.8385 27.9375 52.1641 27.8594 52.5234C27.7865 52.8776 27.75 53.2396 27.75 53.6094V53.9375C27.75 54.3073 27.7865 54.6719 27.8594 55.0312C27.9323 55.3906 28.0547 55.7161 28.2266 56.0078C28.4036 56.2995 28.6406 56.5339 28.9375 56.7109C29.2396 56.8828 29.6146 56.9688 30.0625 56.9688ZM40.2266 56.0469V49.5469H41.6797V58H40.2969L40.2266 56.0469ZM40.5 54.2656L41.1016 54.25C41.1016 54.8125 41.0417 55.3333 40.9219 55.8125C40.8073 56.2865 40.6198 56.6979 40.3594 57.0469C40.099 57.3958 39.7578 57.6693 39.3359 57.8672C38.9141 58.0599 38.401 58.1562 37.7969 58.1562C37.3854 58.1562 37.0078 58.0964 36.6641 57.9766C36.3255 57.8568 36.0339 57.6719 35.7891 57.4219C35.5443 57.1719 35.3542 56.8464 35.2188 56.4453C35.0885 56.0443 35.0234 55.5625 35.0234 55V49.5469H36.4688V55.0156C36.4688 55.3958 36.5104 55.7109 36.5938 55.9609C36.6823 56.2057 36.7995 56.401 36.9453 56.5469C37.0964 56.6875 37.263 56.7865 37.4453 56.8438C37.6328 56.901 37.8255 56.9297 38.0234 56.9297C38.638 56.9297 39.125 56.8125 39.4844 56.5781C39.8438 56.3385 40.1016 56.0182 40.2578 55.6172C40.4193 55.2109 40.5 54.7604 40.5 54.2656ZM45.4531 49.5469V58H44V49.5469H45.4531ZM43.8906 47.3047C43.8906 47.0703 43.9609 46.8724 44.1016 46.7109C44.2474 46.5495 44.4609 46.4688 44.7422 46.4688C45.0182 46.4688 45.2292 46.5495 45.375 46.7109C45.526 46.8724 45.6016 47.0703 45.6016 47.3047C45.6016 47.5286 45.526 47.7214 45.375 47.8828C45.2292 48.0391 45.0182 48.1172 44.7422 48.1172C44.4609 48.1172 44.2474 48.0391 44.1016 47.8828C43.9609 47.7214 43.8906 47.5286 43.8906 47.3047ZM51.3125 49.5469V50.6562H46.7422V49.5469H51.3125ZM48.2891 47.4922H49.7344V55.9062C49.7344 56.1927 49.7786 56.4089 49.8672 56.5547C49.9557 56.7005 50.0703 56.7969 50.2109 56.8438C50.3516 56.8906 50.5026 56.9141 50.6641 56.9141C50.7839 56.9141 50.9089 56.9036 51.0391 56.8828C51.1745 56.8568 51.276 56.8359 51.3438 56.8203L51.3516 58C51.237 58.0365 51.0859 58.0703 50.8984 58.1016C50.7161 58.138 50.4948 58.1562 50.2344 58.1562C49.8802 58.1562 49.5547 58.0859 49.2578 57.9453C48.9609 57.8047 48.724 57.5703 48.5469 57.2422C48.375 56.9089 48.2891 56.4609 48.2891 55.8984V47.4922ZM57.9297 55.7578C57.9297 55.5495 57.8828 55.3568 57.7891 55.1797C57.7005 54.9974 57.5156 54.8333 57.2344 54.6875C56.9583 54.5365 56.5417 54.4062 55.9844 54.2969C55.5156 54.1979 55.0911 54.0807 54.7109 53.9453C54.3359 53.8099 54.0156 53.6458 53.75 53.4531C53.4896 53.2604 53.2891 53.0339 53.1484 52.7734C53.0078 52.513 52.9375 52.2083 52.9375 51.8594C52.9375 51.526 53.0104 51.2109 53.1562 50.9141C53.3073 50.6172 53.5182 50.3542 53.7891 50.125C54.0651 49.8958 54.3958 49.7161 54.7812 49.5859C55.1667 49.4557 55.5964 49.3906 56.0703 49.3906C56.7474 49.3906 57.3255 49.5104 57.8047 49.75C58.2839 49.9896 58.651 50.3099 58.9062 50.7109C59.1615 51.1068 59.2891 51.5469 59.2891 52.0312H57.8438C57.8438 51.7969 57.7734 51.5703 57.6328 51.3516C57.4974 51.1276 57.2969 50.9427 57.0312 50.7969C56.7708 50.651 56.4505 50.5781 56.0703 50.5781C55.6693 50.5781 55.3438 50.6406 55.0938 50.7656C54.849 50.8854 54.6693 51.0391 54.5547 51.2266C54.4453 51.4141 54.3906 51.612 54.3906 51.8203C54.3906 51.9766 54.4167 52.1172 54.4688 52.2422C54.526 52.362 54.625 52.474 54.7656 52.5781C54.9062 52.6771 55.1042 52.7708 55.3594 52.8594C55.6146 52.9479 55.9401 53.0365 56.3359 53.125C57.0286 53.2812 57.599 53.4688 58.0469 53.6875C58.4948 53.9062 58.8281 54.1745 59.0469 54.4922C59.2656 54.8099 59.375 55.1953 59.375 55.6484C59.375 56.0182 59.2969 56.3568 59.1406 56.6641C58.9896 56.9714 58.7682 57.237 58.4766 57.4609C58.1901 57.6797 57.8464 57.8516 57.4453 57.9766C57.0495 58.0964 56.6042 58.1562 56.1094 58.1562C55.3646 58.1562 54.7344 58.0234 54.2188 57.7578C53.7031 57.4922 53.3125 57.1484 53.0469 56.7266C52.7812 56.3047 52.6484 55.8594 52.6484 55.3906H54.1016C54.1224 55.7865 54.237 56.1016 54.4453 56.3359C54.6536 56.5651 54.9089 56.7292 55.2109 56.8281C55.513 56.9219 55.8125 56.9688 56.1094 56.9688C56.5052 56.9688 56.8359 56.9167 57.1016 56.8125C57.3724 56.7083 57.5781 56.5651 57.7188 56.3828C57.8594 56.2005 57.9297 55.9922 57.9297 55.7578Z" fill="black"/>
</svg>
