<svg width="28" height="27" viewBox="0 0 28 27" fill="none" xmlns="http://www.w3.org/2000/svg">
<path d="M18.6296 22.0733L18.6888 21.9102L18.5358 21.8286L8.16812 16.2936L8.05112 16.2311L7.94805 16.3146C7.54866 16.6381 7.10206 16.8918 6.60721 17.0756C6.11539 17.2584 5.59982 17.35 5.05923 17.35C3.88094 17.35 2.88835 16.9731 2.06948 16.2214C1.25125 15.4703 0.847461 14.5668 0.847461 13.5C0.847461 12.4332 1.25125 11.5297 2.06948 10.7786C2.88835 10.0269 3.88094 9.65 5.05923 9.65C5.59982 9.65 6.11539 9.74161 6.60721 9.92435C7.10206 10.1082 7.54866 10.3619 7.94805 10.6854L8.05112 10.7689L8.16812 10.7064L18.5358 5.17143L18.6888 5.08975L18.6296 4.92674C18.586 4.80665 18.5521 4.66833 18.5292 4.51063C18.506 4.35062 18.4945 4.19713 18.4945 4.05C18.4945 2.9832 18.8983 2.07971 19.7165 1.32858C20.5354 0.576854 21.528 0.2 22.7063 0.2C23.8846 0.2 24.8772 0.576854 25.696 1.32858C26.5143 2.07971 26.918 2.9832 26.918 4.05C26.918 5.1168 26.5143 6.02029 25.696 6.77142C24.8772 7.52315 23.8846 7.9 22.7063 7.9C22.1657 7.9 21.6501 7.80839 21.1583 7.62565C20.6635 7.44178 20.2168 7.18809 19.8175 6.86459L19.7144 6.7811L19.5974 6.84357L9.22974 12.3786L9.07675 12.4602L9.13594 12.6233C9.17955 12.7433 9.2134 12.8817 9.2363 13.0394C9.25954 13.1994 9.27099 13.3529 9.27099 13.5C9.27099 13.6471 9.25954 13.8006 9.2363 13.9606C9.2134 14.1183 9.17955 14.2567 9.13594 14.3767L9.07675 14.5398L9.22974 14.6214L19.5974 20.1564L19.7144 20.2189L19.8175 20.1354C20.2168 19.8119 20.6635 19.5582 21.1583 19.3744C21.6501 19.1916 22.1657 19.1 22.7063 19.1C23.8846 19.1 24.8772 19.4769 25.696 20.2286C26.5143 20.9797 26.918 21.8832 26.918 22.95C26.918 24.0168 26.5143 24.9203 25.696 25.6714C24.8772 26.4231 23.8846 26.8 22.7063 26.8C21.528 26.8 20.5354 26.4231 19.7165 25.6714C18.8983 24.9203 18.4945 24.0168 18.4945 22.95C18.4945 22.8029 18.506 22.6494 18.5292 22.4894C18.5521 22.3317 18.586 22.1933 18.6296 22.0733ZM22.7063 5.6C23.1682 5.6 23.5671 5.45497 23.8893 5.15921C24.2124 4.86259 24.3769 4.48853 24.3769 4.05C24.3769 3.61147 24.2124 3.23741 23.8893 2.94079C23.5671 2.64503 23.1682 2.5 22.7063 2.5C22.2444 2.5 21.8454 2.64503 21.5232 2.94079C21.2001 3.23741 21.0357 3.61147 21.0357 4.05C21.0357 4.48853 21.2001 4.86259 21.5232 5.15921C21.8454 5.45497 22.2444 5.6 22.7063 5.6ZM5.05923 15.05C5.52113 15.05 5.92009 14.905 6.24227 14.6092C6.56538 14.3126 6.72981 13.9385 6.72981 13.5C6.72981 13.0615 6.56538 12.6874 6.24227 12.3908C5.92009 12.095 5.52113 11.95 5.05923 11.95C4.59732 11.95 4.19836 12.095 3.87618 12.3908C3.55307 12.6874 3.38864 13.0615 3.38864 13.5C3.38864 13.9385 3.55307 14.3126 3.87618 14.6092C4.19836 14.905 4.59732 15.05 5.05923 15.05ZM22.7063 24.5C23.1682 24.5 23.5671 24.355 23.8893 24.0592C24.2124 23.7626 24.3769 23.3885 24.3769 22.95C24.3769 22.5115 24.2124 22.1374 23.8893 21.8408C23.5671 21.545 23.1682 21.4 22.7063 21.4C22.2444 21.4 21.8454 21.545 21.5232 21.8408C21.2001 22.1374 21.0357 22.5115 21.0357 22.95C21.0357 23.3885 21.2001 23.7626 21.5232 24.0592C21.8454 24.355 22.2444 24.5 22.7063 24.5Z" fill="black" stroke="white" stroke-width="0.4"/>
</svg>
