<svg width="43" height="40" viewBox="0 0 43 40" fill="none" xmlns="http://www.w3.org/2000/svg">
<path d="M9.16667 8.59375C9.16667 7.4652 9.38895 6.34771 9.82083 5.30506C10.2527 4.26242 10.8857 3.31505 11.6837 2.51705C12.4817 1.71905 13.4291 1.08604 14.4717 0.654161C15.5144 0.222284 16.6319 0 17.7604 0C18.889 0 20.0065 0.222284 21.0491 0.654161C22.0917 1.08604 23.0391 1.71905 23.8371 2.51705C24.6351 3.31505 25.2681 4.26242 25.7 5.30506C26.1319 6.34771 26.3542 7.4652 26.3542 8.59375C26.3542 10.873 25.4488 13.0588 23.8371 14.6704C22.2255 16.2821 20.0396 17.1875 17.7604 17.1875C15.4812 17.1875 13.2954 16.2821 11.6837 14.6704C10.0721 13.0588 9.16667 10.873 9.16667 8.59375ZM0 30.3646C0 28.0854 0.90541 25.8995 2.51705 24.2879C4.12869 22.6762 6.31455 21.7708 8.59375 21.7708H9.37292C9.79688 21.7708 10.2185 21.8396 10.6196 21.9679L12.6042 22.6165C14.7948 23.332 17.1103 23.5841 19.4035 23.3567C19.489 23.3495 19.5749 23.3643 19.653 23.3996C19.7312 23.4348 19.7991 23.4895 19.8502 23.5583C19.9014 23.6271 19.9342 23.7079 19.9454 23.7929C19.9567 23.8779 19.9461 23.9644 19.9146 24.0442C19.2469 25.6876 18.9045 27.4449 18.9062 29.2188C18.9063 32.0879 19.7862 34.7531 21.2896 36.9577C21.4981 37.2648 21.2965 37.6979 20.9229 37.7094C14.911 37.9167 8.89316 37.533 2.95625 36.5635C2.13108 36.4292 1.38059 36.0057 0.839 35.3688C0.297405 34.7319 1.2729e-05 33.9231 0 33.0871V30.3646Z" fill="black"/>
<path fill-rule="evenodd" clip-rule="evenodd" d="M22.3438 29.2188C22.3438 31.4463 23.0496 33.5088 24.2504 35.1931C25.2011 36.5372 26.461 37.6329 27.924 38.388C29.3869 39.143 31.01 39.5351 32.6562 39.5313C34.6959 39.5313 36.6897 38.9264 38.3856 37.7933C40.0815 36.6601 41.4032 35.0495 42.1838 33.1652C42.9643 31.2808 43.1685 29.2073 42.7706 27.2069C42.3727 25.2065 41.3905 23.3689 39.9483 21.9267C38.5061 20.4845 36.6685 19.5023 34.6681 19.1044C32.6677 18.7065 30.5942 18.9107 28.7098 19.6912C26.8255 20.4718 25.2149 21.7936 24.0817 23.4894C22.9486 25.1853 22.3438 27.1791 22.3438 29.2188ZM32.6562 36.0938C31.4278 36.0961 30.2214 35.7676 29.1637 35.1427L38.5802 25.7263C39.1961 26.7706 39.5249 27.9592 39.5332 29.1715C39.5415 30.3839 39.2291 31.5769 38.6276 32.6296C38.0261 33.6822 37.157 34.5571 36.1083 35.1655C35.0596 35.7739 33.8686 36.0941 32.6562 36.0938ZM26.7323 32.7113L36.1488 23.2948C34.8356 22.5188 33.3016 22.2015 31.7883 22.3929C30.275 22.5843 28.8683 23.2736 27.7897 24.3522C26.7111 25.4308 26.0218 26.8375 25.8304 28.3508C25.639 29.8641 25.9563 31.3981 26.7323 32.7113Z" fill="black"/>
</svg>
