<svg width="30" height="29" viewBox="0 0 30 29" fill="none" xmlns="http://www.w3.org/2000/svg">
<path d="M17.2447 27.0576L15.7583 28.5318C15.1289 29.1561 14.1111 29.1561 13.4885 28.5318L0.472046 15.6289C-0.157349 15.0047 -0.157349 13.9953 0.472046 13.3777L13.4885 0.46817C14.1178 -0.156057 15.1356 -0.156057 15.7583 0.46817L17.2447 1.94241C17.8808 2.57328 17.8674 3.60259 17.2179 4.22017L9.14965 11.8437H28.393C29.2836 11.8437 30 12.5543 30 13.4375V15.5625C30 16.4457 29.2836 17.1563 28.393 17.1563H9.14965L17.2179 24.7798C17.8741 25.3974 17.8875 26.4267 17.2447 27.0576Z" fill="#D9D9D9"/>
</svg>
