<svg width="16" height="26" viewBox="0 0 16 26" fill="none" xmlns="http://www.w3.org/2000/svg">
<path d="M0.670185 0.673205C0.457739 0.885216 0.289193 1.13704 0.174193 1.41427C0.0591942 1.69151 0 1.98869 0 2.28883C0 2.58897 0.0591942 2.88616 0.174193 3.16339C0.289193 3.44062 0.457739 3.69244 0.670185 3.90446L9.56185 12.7961L0.670185 21.6878C0.241694 22.1163 0.000970364 22.6974 0.000970364 23.3034C0.000970364 23.9094 0.241694 24.4906 0.670185 24.919C1.09868 25.3475 1.67983 25.5883 2.28581 25.5883C2.89179 25.5883 3.47294 25.3475 3.90143 24.919L14.4202 14.4003C14.6326 14.1883 14.8012 13.9364 14.9162 13.6592C15.0312 13.382 15.0904 13.0848 15.0904 12.7847C15.0904 12.4845 15.0312 12.1873 14.9162 11.9101C14.8012 11.6329 14.6326 11.381 14.4202 11.169L3.90143 0.650288C3.0306 -0.220545 1.56393 -0.220545 0.670185 0.673205Z" fill="#FFB600"/>
</svg>
