<svg width="27" height="16" viewBox="0 0 27 16" fill="none" xmlns="http://www.w3.org/2000/svg">
<path d="M1.24609 0.78125H3.07227L7.73047 12.373L12.3789 0.78125H14.2148L8.43359 15H7.00781L1.24609 0.78125ZM0.650391 0.78125H2.26172L2.52539 9.45312V15H0.650391V0.78125ZM13.1895 0.78125H14.8008V15H12.9258V9.45312L13.1895 0.78125ZM22.2227 15.1953C21.487 15.1953 20.8197 15.0716 20.2207 14.8242C19.6283 14.5703 19.1172 14.2155 18.6875 13.7598C18.2643 13.304 17.9388 12.7637 17.7109 12.1387C17.4831 11.5137 17.3691 10.8301 17.3691 10.0879V9.67773C17.3691 8.81836 17.4961 8.05339 17.75 7.38281C18.0039 6.70573 18.349 6.13281 18.7852 5.66406C19.2214 5.19531 19.7161 4.84049 20.2695 4.59961C20.8229 4.35872 21.3958 4.23828 21.9883 4.23828C22.7435 4.23828 23.3945 4.36849 23.9414 4.62891C24.4948 4.88932 24.9473 5.25391 25.2988 5.72266C25.6504 6.1849 25.9108 6.73177 26.0801 7.36328C26.2493 7.98828 26.334 8.67188 26.334 9.41406V10.2246H18.4434V8.75H24.5273V8.61328C24.5013 8.14453 24.4036 7.6888 24.2344 7.24609C24.0716 6.80339 23.8112 6.4388 23.4531 6.15234C23.0951 5.86589 22.6068 5.72266 21.9883 5.72266C21.5781 5.72266 21.2005 5.81055 20.8555 5.98633C20.5104 6.1556 20.2142 6.40951 19.9668 6.74805C19.7194 7.08659 19.5273 7.5 19.3906 7.98828C19.2539 8.47656 19.1855 9.03971 19.1855 9.67773V10.0879C19.1855 10.5892 19.2539 11.0612 19.3906 11.5039C19.5339 11.9401 19.7389 12.3242 20.0059 12.6562C20.2793 12.9883 20.6081 13.2487 20.9922 13.4375C21.3828 13.6263 21.8255 13.7207 22.3203 13.7207C22.9583 13.7207 23.4987 13.5905 23.9414 13.3301C24.3841 13.0697 24.7715 12.7214 25.1035 12.2852L26.1973 13.1543C25.9694 13.4993 25.6797 13.8281 25.3281 14.1406C24.9766 14.4531 24.5436 14.707 24.0293 14.9023C23.5215 15.0977 22.9193 15.1953 22.2227 15.1953Z" fill="#7CB518"/>
</svg>
